<?xml version="1.0" standalone="no"?>
<!DOCTYPE svg PUBLIC "-//W3C//DTD SVG 1.1//EN" "http://www.w3.org/Graphics/SVG/1.1/DTD/svg11.dtd">
<svg version="1.1" width="1200" height="534" onload="init(evt)" viewBox="0 0 1200 534" xmlns="http://www.w3.org/2000/svg" xmlns:xlink="http://www.w3.org/1999/xlink">
<!-- Flame graph stack visualization. See https://github.com/brendangregg/FlameGraph for latest version, and http://www.brendangregg.com/flamegraphs.html for examples. -->
<!-- NOTES:  -->

<style type="text/css">
	text { font-family:Verdana; font-size:12px; fill:rgb(0,0,0); }
	#search, #ignorecase { opacity:0.1; cursor:pointer; }
	#search:hover, #search.show, #ignorecase:hover, #ignorecase.show { opacity:1; }
	#subtitle { text-anchor:middle; font-color:rgb(160,160,160); }
	#title { text-anchor:middle; font-size:17px}
	#unzoom { cursor:pointer; }
	#frames > *:hover { stroke:black; stroke-width:0.5; cursor:pointer; }
	.hide { display:none; }
	.parent { opacity:0.5; }
</style>
<script type="text/ecmascript">
<![CDATA[
	"use strict";
	var details, searchbtn, unzoombtn, matchedtxt, svg, searching, currentSearchTerm, ignorecase, ignorecaseBtn;
	function init(evt) {
		details = document.getElementById("details").firstChild;
		searchbtn = document.getElementById("search");
		ignorecaseBtn = document.getElementById("ignorecase");
		unzoombtn = document.getElementById("unzoom");
		matchedtxt = document.getElementById("matched");
		svg = document.getElementsByTagName("svg")[0];
		searching = 0;
		currentSearchTerm = null;

		// use GET parameters to restore a flamegraphs state.
		var params = get_params();
		if (params.x && params.y)
			zoom(find_group(document.querySelector('[x="' + params.x + '"][y="' + params.y + '"]')));
                if (params.s) search(params.s);
	}

	// event listeners
	window.addEventListener("click", function(e) {
		var target = find_group(e.target);
		if (target) {
			if (target.nodeName == "a") {
				if (e.ctrlKey === false) return;
				e.preventDefault();
			}
			if (target.classList.contains("parent")) unzoom(true);
			zoom(target);
			if (!document.querySelector('.parent')) {
				// we have basically done a clearzoom so clear the url
				var params = get_params();
				if (params.x) delete params.x;
				if (params.y) delete params.y;
				history.replaceState(null, null, parse_params(params));
				unzoombtn.classList.add("hide");
				return;
			}

			// set parameters for zoom state
			var el = target.querySelector("rect");
			if (el && el.attributes && el.attributes.y && el.attributes._orig_x) {
				var params = get_params()
				params.x = el.attributes._orig_x.value;
				params.y = el.attributes.y.value;
				history.replaceState(null, null, parse_params(params));
			}
		}
		else if (e.target.id == "unzoom") clearzoom();
		else if (e.target.id == "search") search_prompt();
		else if (e.target.id == "ignorecase") toggle_ignorecase();
	}, false)

	// mouse-over for info
	// show
	window.addEventListener("mouseover", function(e) {
		var target = find_group(e.target);
		if (target) details.nodeValue = "Function: " + g_to_text(target);
	}, false)

	// clear
	window.addEventListener("mouseout", function(e) {
		var target = find_group(e.target);
		if (target) details.nodeValue = ' ';
	}, false)

	// ctrl-F for search
	// ctrl-I to toggle case-sensitive search
	window.addEventListener("keydown",function (e) {
		if (e.keyCode === 114 || (e.ctrlKey && e.keyCode === 70)) {
			e.preventDefault();
			search_prompt();
		}
		else if (e.ctrlKey && e.keyCode === 73) {
			e.preventDefault();
			toggle_ignorecase();
		}
	}, false)

	// functions
	function get_params() {
		var params = {};
		var paramsarr = window.location.search.substr(1).split('&');
		for (var i = 0; i < paramsarr.length; ++i) {
			var tmp = paramsarr[i].split("=");
			if (!tmp[0] || !tmp[1]) continue;
			params[tmp[0]]  = decodeURIComponent(tmp[1]);
		}
		return params;
	}
	function parse_params(params) {
		var uri = "?";
		for (var key in params) {
			uri += key + '=' + encodeURIComponent(params[key]) + '&';
		}
		if (uri.slice(-1) == "&")
			uri = uri.substring(0, uri.length - 1);
		if (uri == '?')
			uri = window.location.href.split('?')[0];
		return uri;
	}
	function find_child(node, selector) {
		var children = node.querySelectorAll(selector);
		if (children.length) return children[0];
	}
	function find_group(node) {
		var parent = node.parentElement;
		if (!parent) return;
		if (parent.id == "frames") return node;
		return find_group(parent);
	}
	function orig_save(e, attr, val) {
		if (e.attributes["_orig_" + attr] != undefined) return;
		if (e.attributes[attr] == undefined) return;
		if (val == undefined) val = e.attributes[attr].value;
		e.setAttribute("_orig_" + attr, val);
	}
	function orig_load(e, attr) {
		if (e.attributes["_orig_"+attr] == undefined) return;
		e.attributes[attr].value = e.attributes["_orig_" + attr].value;
		e.removeAttribute("_orig_"+attr);
	}
	function g_to_text(e) {
		var text = find_child(e, "title").firstChild.nodeValue;
		return (text)
	}
	function g_to_func(e) {
		var func = g_to_text(e);
		// if there's any manipulation we want to do to the function
		// name before it's searched, do it here before returning.
		return (func);
	}
	function update_text(e) {
		var r = find_child(e, "rect");
		var t = find_child(e, "text");
		var w = parseFloat(r.attributes.width.value) -3;
		var txt = find_child(e, "title").textContent.replace(/\([^(]*\)$/,"");
		t.attributes.x.value = parseFloat(r.attributes.x.value) + 3;

		// Smaller than this size won't fit anything
		if (w < 2 * 12 * 0.59) {
			t.textContent = "";
			return;
		}

		t.textContent = txt;
		var sl = t.getSubStringLength(0, txt.length);
		// check if only whitespace or if we can fit the entire string into width w
		if (/^ *$/.test(txt) || sl < w)
			return;

		// this isn't perfect, but gives a good starting point
		// and avoids calling getSubStringLength too often
		var start = Math.floor((w/sl) * txt.length);
		for (var x = start; x > 0; x = x-2) {
			if (t.getSubStringLength(0, x + 2) <= w) {
				t.textContent = txt.substring(0, x) + "..";
				return;
			}
		}
		t.textContent = "";
	}

	// zoom
	function zoom_reset(e) {
		if (e.attributes != undefined) {
			orig_load(e, "x");
			orig_load(e, "width");
		}
		if (e.childNodes == undefined) return;
		for (var i = 0, c = e.childNodes; i < c.length; i++) {
			zoom_reset(c[i]);
		}
	}
	function zoom_child(e, x, ratio) {
		if (e.attributes != undefined) {
			if (e.attributes.x != undefined) {
				orig_save(e, "x");
				e.attributes.x.value = (parseFloat(e.attributes.x.value) - x - 10) * ratio + 10;
				if (e.tagName == "text")
					e.attributes.x.value = find_child(e.parentNode, "rect[x]").attributes.x.value + 3;
			}
			if (e.attributes.width != undefined) {
				orig_save(e, "width");
				e.attributes.width.value = parseFloat(e.attributes.width.value) * ratio;
			}
		}

		if (e.childNodes == undefined) return;
		for (var i = 0, c = e.childNodes; i < c.length; i++) {
			zoom_child(c[i], x - 10, ratio);
		}
	}
	function zoom_parent(e) {
		if (e.attributes) {
			if (e.attributes.x != undefined) {
				orig_save(e, "x");
				e.attributes.x.value = 10;
			}
			if (e.attributes.width != undefined) {
				orig_save(e, "width");
				e.attributes.width.value = parseInt(svg.width.baseVal.value) - (10 * 2);
			}
		}
		if (e.childNodes == undefined) return;
		for (var i = 0, c = e.childNodes; i < c.length; i++) {
			zoom_parent(c[i]);
		}
	}
	function zoom(node) {
		var attr = find_child(node, "rect").attributes;
		var width = parseFloat(attr.width.value);
		var xmin = parseFloat(attr.x.value);
		var xmax = parseFloat(xmin + width);
		var ymin = parseFloat(attr.y.value);
		var ratio = (svg.width.baseVal.value - 2 * 10) / width;

		// XXX: Workaround for JavaScript float issues (fix me)
		var fudge = 0.0001;

		unzoombtn.classList.remove("hide");

		var el = document.getElementById("frames").children;
		for (var i = 0; i < el.length; i++) {
			var e = el[i];
			var a = find_child(e, "rect").attributes;
			var ex = parseFloat(a.x.value);
			var ew = parseFloat(a.width.value);
			var upstack;
			// Is it an ancestor
			if (0 == 0) {
				upstack = parseFloat(a.y.value) > ymin;
			} else {
				upstack = parseFloat(a.y.value) < ymin;
			}
			if (upstack) {
				// Direct ancestor
				if (ex <= xmin && (ex+ew+fudge) >= xmax) {
					e.classList.add("parent");
					zoom_parent(e);
					update_text(e);
				}
				// not in current path
				else
					e.classList.add("hide");
			}
			// Children maybe
			else {
				// no common path
				if (ex < xmin || ex + fudge >= xmax) {
					e.classList.add("hide");
				}
				else {
					zoom_child(e, xmin, ratio);
					update_text(e);
				}
			}
		}
		search();
	}
	function unzoom(dont_update_text) {
		unzoombtn.classList.add("hide");
		var el = document.getElementById("frames").children;
		for(var i = 0; i < el.length; i++) {
			el[i].classList.remove("parent");
			el[i].classList.remove("hide");
			zoom_reset(el[i]);
			if(!dont_update_text) update_text(el[i]);
		}
		search();
	}
	function clearzoom() {
		unzoom();

		// remove zoom state
		var params = get_params();
		if (params.x) delete params.x;
		if (params.y) delete params.y;
		history.replaceState(null, null, parse_params(params));
	}

	// search
	function toggle_ignorecase() {
		ignorecase = !ignorecase;
		if (ignorecase) {
			ignorecaseBtn.classList.add("show");
		} else {
			ignorecaseBtn.classList.remove("show");
		}
		reset_search();
		search();
	}
	function reset_search() {
		var el = document.querySelectorAll("#frames rect");
		for (var i = 0; i < el.length; i++) {
			orig_load(el[i], "fill")
		}
		var params = get_params();
		delete params.s;
		history.replaceState(null, null, parse_params(params));
	}
	function search_prompt() {
		if (!searching) {
			var term = prompt("Enter a search term (regexp " +
			    "allowed, eg: ^ext4_)"
			    + (ignorecase ? ", ignoring case" : "")
			    + "\nPress Ctrl-i to toggle case sensitivity", "");
			if (term != null) search(term);
		} else {
			reset_search();
			searching = 0;
			currentSearchTerm = null;
			searchbtn.classList.remove("show");
			searchbtn.firstChild.nodeValue = "Search"
			matchedtxt.classList.add("hide");
			matchedtxt.firstChild.nodeValue = ""
		}
	}
	function search(term) {
		if (term) currentSearchTerm = term;
		if (currentSearchTerm === null) return;

		var re = new RegExp(currentSearchTerm, ignorecase ? 'i' : '');
		var el = document.getElementById("frames").children;
		var matches = new Object();
		var maxwidth = 0;
		for (var i = 0; i < el.length; i++) {
			var e = el[i];
			var func = g_to_func(e);
			var rect = find_child(e, "rect");
			if (func == null || rect == null)
				continue;

			// Save max width. Only works as we have a root frame
			var w = parseFloat(rect.attributes.width.value);
			if (w > maxwidth)
				maxwidth = w;

			if (func.match(re)) {
				// highlight
				var x = parseFloat(rect.attributes.x.value);
				orig_save(rect, "fill");
				rect.attributes.fill.value = "rgb(230,0,230)";

				// remember matches
				if (matches[x] == undefined) {
					matches[x] = w;
				} else {
					if (w > matches[x]) {
						// overwrite with parent
						matches[x] = w;
					}
				}
				searching = 1;
			}
		}
		if (!searching)
			return;
		var params = get_params();
		params.s = currentSearchTerm;
		history.replaceState(null, null, parse_params(params));

		searchbtn.classList.add("show");
		searchbtn.firstChild.nodeValue = "Reset Search";

		// calculate percent matched, excluding vertical overlap
		var count = 0;
		var lastx = -1;
		var lastw = 0;
		var keys = Array();
		for (k in matches) {
			if (matches.hasOwnProperty(k))
				keys.push(k);
		}
		// sort the matched frames by their x location
		// ascending, then width descending
		keys.sort(function(a, b){
			return a - b;
		});
		// Step through frames saving only the biggest bottom-up frames
		// thanks to the sort order. This relies on the tree property
		// where children are always smaller than their parents.
		var fudge = 0.0001;	// JavaScript floating point
		for (var k in keys) {
			var x = parseFloat(keys[k]);
			var w = matches[keys[k]];
			if (x >= lastx + lastw - fudge) {
				count += w;
				lastx = x;
				lastw = w;
			}
		}
		// display matched percent
		matchedtxt.classList.remove("hide");
		var pct = 100 * count / maxwidth;
		if (pct != 100) pct = pct.toFixed(1)
		matchedtxt.firstChild.nodeValue = "Matched: " + pct + "%";
	}
]]>
</script>
<rect x="0.0" y="0" width="1200.0" height="534.0" fill="url(#background)"  />
<text id="details" x="10.00" y="517" > </text>
<text id="unzoom" x="10.00" y="24" class="hide">Reset Zoom</text>
<text id="search" x="1090.00" y="24" >Search</text>
<text id="ignorecase" x="1174.00" y="24" >ic</text>
<text id="matched" x="1090.00" y="517" > </text>
<g id="frames">
<g >
<title>sha1_compression_states (18,018,018 samples, 7.50%)</title><rect x="157.5" y="453" width="88.5" height="15.0" fill="rgba(241,80,47,0.92)" rx="2" ry="2" />
<text  x="160.50" y="463.5" >sha1_compr..</text>
</g>
<g >
<title>[ld-linux-x86-64.so.2] (2,002,002 samples, 0.83%)</title><rect x="14.9" y="421" width="9.9" height="15.0" fill="rgba(241,80,47,0.82)" rx="2" ry="2" />
<text  x="17.92" y="431.5" ></text>
</g>
<g >
<title>[libcrypto.so.3] (2,002,002 samples, 0.83%)</title><rect x="103.4" y="117" width="9.8" height="15.0" fill="rgba(241,80,47,0.68)" rx="2" ry="2" />
<text  x="106.42" y="127.5" ></text>
</g>
<g >
<title>OPENSSL_sk_value (1,001,001 samples, 0.42%)</title><rect x="34.6" y="197" width="4.9" height="15.0" fill="rgba(55,125,205,0.40)" rx="2" ry="2" />
<text  x="37.58" y="207.5" ></text>
</g>
<g >
<title>X509_load_cert_crl_file_ex (21,021,021 samples, 8.75%)</title><rect x="29.7" y="405" width="103.2" height="15.0" fill="rgba(241,80,47,0.96)" rx="2" ry="2" />
<text  x="32.67" y="415.5" >X509_load_ce..</text>
</g>
<g >
<title>OSSL_DECODER_is_a (10,010,010 samples, 4.17%)</title><rect x="29.7" y="229" width="49.1" height="15.0" fill="rgba(55,125,205,0.25)" rx="2" ry="2" />
<text  x="32.67" y="239.5" >OSSL..</text>
</g>
<g >
<title>[unknown] (1,001,001 samples, 0.42%)</title><rect x="1185.1" y="341" width="4.9" height="15.0" fill="rgba(55,125,205,0.29)" rx="2" ry="2" />
<text  x="1188.08" y="351.5" ></text>
</g>
<g >
<title>[libcrypto.so.3] (1,001,001 samples, 0.42%)</title><rect x="24.8" y="277" width="4.9" height="15.0" fill="rgba(241,80,47,0.68)" rx="2" ry="2" />
<text  x="27.75" y="287.5" ></text>
</g>
<g >
<title>EVP_PKEY_set_type_by_keymgmt (2,002,002 samples, 0.83%)</title><rect x="103.4" y="101" width="9.8" height="15.0" fill="rgba(241,80,47,0.77)" rx="2" ry="2" />
<text  x="106.42" y="111.5" ></text>
</g>
<g >
<title>[unknown] (5,005,005 samples, 2.08%)</title><rect x="132.9" y="389" width="24.6" height="15.0" fill="rgba(55,125,205,0.29)" rx="2" ry="2" />
<text  x="135.92" y="399.5" >[..</text>
</g>
<g >
<title>ASN1_item_d2i_ex (19,019,019 samples, 7.92%)</title><rect x="29.7" y="373" width="93.4" height="15.0" fill="rgba(241,80,47,0.71)" rx="2" ry="2" />
<text  x="32.67" y="383.5" >ASN1_item_d..</text>
</g>
<g >
<title>[unknown] (181,181,181 samples, 75.42%)</title><rect x="300.1" y="389" width="889.9" height="15.0" fill="rgba(55,125,205,0.29)" rx="2" ry="2" />
<text  x="303.08" y="399.5" >[unknown]</text>
</g>
<g >
<title>[unknown] (5,005,005 samples, 2.08%)</title><rect x="132.9" y="341" width="24.6" height="15.0" fill="rgba(55,125,205,0.29)" rx="2" ry="2" />
<text  x="135.92" y="351.5" >[..</text>
</g>
<g >
<title>[libcrypto.so.3] (5,005,005 samples, 2.08%)</title><rect x="78.8" y="245" width="24.6" height="15.0" fill="rgba(241,80,47,0.68)" rx="2" ry="2" />
<text  x="81.83" y="255.5" >[..</text>
</g>
<g >
<title>[ld-linux-x86-64.so.2] (1,001,001 samples, 0.42%)</title><rect x="19.8" y="357" width="5.0" height="15.0" fill="rgba(241,80,47,0.82)" rx="2" ry="2" />
<text  x="22.83" y="367.5" ></text>
</g>
<g >
<title>[ld-linux-x86-64.so.2] (2,002,002 samples, 0.83%)</title><rect x="14.9" y="405" width="9.9" height="15.0" fill="rgba(241,80,47,0.82)" rx="2" ry="2" />
<text  x="17.92" y="415.5" ></text>
</g>
<g >
<title>[libcrypto.so.3] (4,004,004 samples, 1.67%)</title><rect x="78.8" y="213" width="19.7" height="15.0" fill="rgba(241,80,47,0.68)" rx="2" ry="2" />
<text  x="81.83" y="223.5" ></text>
</g>
<g >
<title>shutdown_ssl (1,001,001 samples, 0.42%)</title><rect x="246.0" y="453" width="4.9" height="15.0" fill="rgba(241,80,47,0.99)" rx="2" ry="2" />
<text  x="249.00" y="463.5" ></text>
</g>
<g >
<title>[unknown] (1,001,001 samples, 0.42%)</title><rect x="19.8" y="293" width="5.0" height="15.0" fill="rgba(55,125,205,0.29)" rx="2" ry="2" />
<text  x="22.83" y="303.5" ></text>
</g>
<g >
<title>asn1_d2i_read_bio (1,001,001 samples, 0.42%)</title><rect x="113.2" y="181" width="5.0" height="15.0" fill="rgba(241,80,47,0.74)" rx="2" ry="2" />
<text  x="116.25" y="191.5" ></text>
</g>
<g >
<title>EVP_KEYMGMT_is_a (1,001,001 samples, 0.42%)</title><rect x="98.5" y="229" width="4.9" height="15.0" fill="rgba(55,125,205,0.21)" rx="2" ry="2" />
<text  x="101.50" y="239.5" ></text>
</g>
<g >
<title>CRYPTO_strdup (1,001,001 samples, 0.42%)</title><rect x="113.2" y="133" width="5.0" height="15.0" fill="rgba(241,80,47,0.74)" rx="2" ry="2" />
<text  x="116.25" y="143.5" ></text>
</g>
<g >
<title>[libcrypto.so.3] (1,001,001 samples, 0.42%)</title><rect x="98.5" y="181" width="4.9" height="15.0" fill="rgba(241,80,47,0.68)" rx="2" ry="2" />
<text  x="101.50" y="191.5" ></text>
</g>
<g >
<title>EVP_KEYMGMT_do_all_provided (4,004,004 samples, 1.67%)</title><rect x="78.8" y="229" width="19.7" height="15.0" fill="rgba(241,80,47,0.80)" rx="2" ry="2" />
<text  x="81.83" y="239.5" ></text>
</g>
<g >
<title>OSSL_DECODER_CTX_add_extra (10,010,010 samples, 4.17%)</title><rect x="29.7" y="245" width="49.1" height="15.0" fill="rgba(241,80,47,0.76)" rx="2" ry="2" />
<text  x="32.67" y="255.5" >OSSL..</text>
</g>
<g >
<title>ASN1_get_object (1,001,001 samples, 0.42%)</title><rect x="113.2" y="165" width="5.0" height="15.0" fill="rgba(55,125,205,0.38)" rx="2" ry="2" />
<text  x="116.25" y="175.5" ></text>
</g>
<g >
<title>[libcrypto.so.3] (1,001,001 samples, 0.42%)</title><rect x="98.5" y="133" width="4.9" height="15.0" fill="rgba(241,80,47,0.68)" rx="2" ry="2" />
<text  x="101.50" y="143.5" ></text>
</g>
<g >
<title>[libcrypto.so.3] (3,003,003 samples, 1.25%)</title><rect x="103.4" y="213" width="14.8" height="15.0" fill="rgba(241,80,47,0.68)" rx="2" ry="2" />
<text  x="106.42" y="223.5" ></text>
</g>
<g >
<title>[libcrypto.so.3] (1,001,001 samples, 0.42%)</title><rect x="98.5" y="197" width="4.9" height="15.0" fill="rgba(241,80,47,0.68)" rx="2" ry="2" />
<text  x="101.50" y="207.5" ></text>
</g>
<g >
<title>[libcrypto.so.3] (2,002,002 samples, 0.83%)</title><rect x="103.4" y="133" width="9.8" height="15.0" fill="rgba(241,80,47,0.68)" rx="2" ry="2" />
<text  x="106.42" y="143.5" ></text>
</g>
<g >
<title>[libcrypto.so.3] (1,001,001 samples, 0.42%)</title><rect x="24.8" y="357" width="4.9" height="15.0" fill="rgba(241,80,47,0.68)" rx="2" ry="2" />
<text  x="27.75" y="367.5" ></text>
</g>
<g >
<title>malloc (1,001,001 samples, 0.42%)</title><rect x="113.2" y="117" width="5.0" height="15.0" fill="rgba(241,80,47,0.61)" rx="2" ry="2" />
<text  x="116.25" y="127.5" ></text>
</g>
<g >
<title>[libcrypto.so.3] (1,001,001 samples, 0.42%)</title><rect x="246.0" y="341" width="4.9" height="15.0" fill="rgba(241,80,47,0.68)" rx="2" ry="2" />
<text  x="249.00" y="351.5" ></text>
</g>
<g >
<title>read (5,005,005 samples, 2.08%)</title><rect x="132.9" y="453" width="24.6" height="15.0" fill="rgba(241,80,47,0.95)" rx="2" ry="2" />
<text  x="135.92" y="463.5" >r..</text>
</g>
<g >
<title>openssl_init (22,022,022 samples, 9.17%)</title><rect x="24.8" y="453" width="108.1" height="15.0" fill="rgba(241,80,47,0.86)" rx="2" ry="2" />
<text  x="27.75" y="463.5" >openssl_init</text>
</g>
<g >
<title>malloc (1,001,001 samples, 0.42%)</title><rect x="108.3" y="69" width="4.9" height="15.0" fill="rgba(241,80,47,0.61)" rx="2" ry="2" />
<text  x="111.33" y="79.5" ></text>
</g>
<g >
<title>[libcrypto.so.3] (1,001,001 samples, 0.42%)</title><rect x="118.2" y="261" width="4.9" height="15.0" fill="rgba(241,80,47,0.68)" rx="2" ry="2" />
<text  x="121.17" y="271.5" ></text>
</g>
<g >
<title>OPENSSL_LH_retrieve (3,003,003 samples, 1.25%)</title><rect x="64.1" y="181" width="14.7" height="15.0" fill="rgba(55,125,205,0.44)" rx="2" ry="2" />
<text  x="67.08" y="191.5" ></text>
</g>
<g >
<title>[libcrypto.so.3] (21,021,021 samples, 8.75%)</title><rect x="29.7" y="421" width="103.2" height="15.0" fill="rgba(241,80,47,0.68)" rx="2" ry="2" />
<text  x="32.67" y="431.5" >[libcrypto.s..</text>
</g>
<g >
<title>X509_up_ref (1,001,001 samples, 0.42%)</title><rect x="128.0" y="373" width="4.9" height="15.0" fill="rgba(55,125,205,0.44)" rx="2" ry="2" />
<text  x="131.00" y="383.5" ></text>
</g>
<g >
<title>X509_OBJECT_free (1,001,001 samples, 0.42%)</title><rect x="246.0" y="389" width="4.9" height="15.0" fill="rgba(55,125,205,0.29)" rx="2" ry="2" />
<text  x="249.00" y="399.5" ></text>
</g>
<g >
<title>[libcrypto.so.3] (1,001,001 samples, 0.42%)</title><rect x="246.0" y="357" width="4.9" height="15.0" fill="rgba(241,80,47,0.68)" rx="2" ry="2" />
<text  x="249.00" y="367.5" ></text>
</g>
<g >
<title>[libcrypto.so.3] (1,001,001 samples, 0.42%)</title><rect x="73.9" y="149" width="4.9" height="15.0" fill="rgba(241,80,47,0.68)" rx="2" ry="2" />
<text  x="76.92" y="159.5" ></text>
</g>
<g >
<title>ubc_check (10,010,010 samples, 4.17%)</title><rect x="250.9" y="453" width="49.2" height="15.0" fill="rgba(55,125,205,0.55)" rx="2" ry="2" />
<text  x="253.92" y="463.5" >ubc_..</text>
</g>
<g >
<title>[libcrypto.so.3] (1,001,001 samples, 0.42%)</title><rect x="24.8" y="341" width="4.9" height="15.0" fill="rgba(241,80,47,0.68)" rx="2" ry="2" />
<text  x="27.75" y="351.5" ></text>
</g>
<g >
<title>[libcrypto.so.3] (1,001,001 samples, 0.42%)</title><rect x="24.8" y="293" width="4.9" height="15.0" fill="rgba(241,80,47,0.68)" rx="2" ry="2" />
<text  x="27.75" y="303.5" ></text>
</g>
<g >
<title>[libcrypto.so.3] (19,019,019 samples, 7.92%)</title><rect x="29.7" y="341" width="93.4" height="15.0" fill="rgba(241,80,47,0.68)" rx="2" ry="2" />
<text  x="32.67" y="351.5" >[libcrypto...</text>
</g>
<g >
<title>[unknown] (5,005,005 samples, 2.08%)</title><rect x="132.9" y="357" width="24.6" height="15.0" fill="rgba(55,125,205,0.29)" rx="2" ry="2" />
<text  x="135.92" y="367.5" >[..</text>
</g>
<g >
<title>swapper (181,181,181 samples, 75.42%)</title><rect x="300.1" y="469" width="889.9" height="15.0" fill="rgba(241,80,47,0.75)" rx="2" ry="2" />
<text  x="303.08" y="479.5" >swapper</text>
</g>
<g >
<title>[unknown] (181,181,181 samples, 75.42%)</title><rect x="300.1" y="357" width="889.9" height="15.0" fill="rgba(55,125,205,0.29)" rx="2" ry="2" />
<text  x="303.08" y="367.5" >[unknown]</text>
</g>
<g >
<title>ERR_set_debug (1,001,001 samples, 0.42%)</title><rect x="113.2" y="149" width="5.0" height="15.0" fill="rgba(241,80,47,0.66)" rx="2" ry="2" />
<text  x="116.25" y="159.5" ></text>
</g>
<g >
<title>pthread_rwlock_unlock (1,001,001 samples, 0.42%)</title><rect x="59.2" y="165" width="4.9" height="15.0" fill="rgba(55,125,205,0.40)" rx="2" ry="2" />
<text  x="62.17" y="175.5" ></text>
</g>
<g >
<title>CRYPTO_THREAD_read_lock (1,001,001 samples, 0.42%)</title><rect x="29.7" y="197" width="4.9" height="15.0" fill="rgba(55,125,205,0.38)" rx="2" ry="2" />
<text  x="32.67" y="207.5" ></text>
</g>
<g >
<title>[ld-linux-x86-64.so.2] (1,001,001 samples, 0.42%)</title><rect x="19.8" y="325" width="5.0" height="15.0" fill="rgba(241,80,47,0.82)" rx="2" ry="2" />
<text  x="22.83" y="335.5" ></text>
</g>
<g >
<title>git2 (59,059,059 samples, 24.58%)</title><rect x="10.0" y="469" width="290.1" height="15.0" fill="rgba(241,80,47,0.88)" rx="2" ry="2" />
<text  x="13.00" y="479.5" >git2</text>
</g>
<g >
<title>all (240,240,240 samples, 100%)</title><rect x="10.0" y="485" width="1180.0" height="15.0" fill="rgba(55,125,205,0.34)" rx="2" ry="2" />
<text  x="13.00" y="495.5" ></text>
</g>
<g >
<title>[libcrypto.so.3] (1,001,001 samples, 0.42%)</title><rect x="24.8" y="373" width="4.9" height="15.0" fill="rgba(241,80,47,0.68)" rx="2" ry="2" />
<text  x="27.75" y="383.5" ></text>
</g>
<g >
<title>[unknown] (5,005,005 samples, 2.08%)</title><rect x="132.9" y="277" width="24.6" height="15.0" fill="rgba(55,125,205,0.29)" rx="2" ry="2" />
<text  x="135.92" y="287.5" >[..</text>
</g>
<g >
<title>EC_KEY_free (1,001,001 samples, 0.42%)</title><rect x="246.0" y="261" width="4.9" height="15.0" fill="rgba(241,80,47,0.96)" rx="2" ry="2" />
<text  x="249.00" y="271.5" ></text>
</g>
<g >
<title>EVP_PKEY_free (1,001,001 samples, 0.42%)</title><rect x="246.0" y="277" width="4.9" height="15.0" fill="rgba(241,80,47,0.85)" rx="2" ry="2" />
<text  x="249.00" y="287.5" ></text>
</g>
<g >
<title>[libcrypto.so.3] (1,001,001 samples, 0.42%)</title><rect x="246.0" y="309" width="4.9" height="15.0" fill="rgba(241,80,47,0.68)" rx="2" ry="2" />
<text  x="249.00" y="319.5" ></text>
</g>
<g >
<title>[libcrypto.so.3] (19,019,019 samples, 7.92%)</title><rect x="29.7" y="277" width="93.4" height="15.0" fill="rgba(241,80,47,0.68)" rx="2" ry="2" />
<text  x="32.67" y="287.5" >[libcrypto...</text>
</g>
<g >
<title>pthread_rwlock_rdlock (4,004,004 samples, 1.67%)</title><rect x="39.5" y="165" width="19.7" height="15.0" fill="rgba(241,80,47,0.94)" rx="2" ry="2" />
<text  x="42.50" y="175.5" ></text>
</g>
<g >
<title>OSSL_DECODER_from_data (3,003,003 samples, 1.25%)</title><rect x="103.4" y="261" width="14.8" height="15.0" fill="rgba(241,80,47,0.77)" rx="2" ry="2" />
<text  x="106.42" y="271.5" ></text>
</g>
<g >
<title>OPENSSL_sk_num (1,001,001 samples, 0.42%)</title><rect x="88.7" y="165" width="4.9" height="15.0" fill="rgba(241,80,47,0.78)" rx="2" ry="2" />
<text  x="91.67" y="175.5" ></text>
</g>
<g >
<title>[libc.so.6] (1,001,001 samples, 0.42%)</title><rect x="24.8" y="229" width="4.9" height="15.0" fill="rgba(55,125,205,0.49)" rx="2" ry="2" />
<text  x="27.75" y="239.5" ></text>
</g>
<g >
<title>[unknown] (5,005,005 samples, 2.08%)</title><rect x="132.9" y="325" width="24.6" height="15.0" fill="rgba(55,125,205,0.29)" rx="2" ry="2" />
<text  x="135.92" y="335.5" >[..</text>
</g>
<g >
<title>[libcrypto.so.3] (2,002,002 samples, 0.83%)</title><rect x="103.4" y="85" width="9.8" height="15.0" fill="rgba(241,80,47,0.68)" rx="2" ry="2" />
<text  x="106.42" y="95.5" ></text>
</g>
<g >
<title>[ld-linux-x86-64.so.2] (2,002,002 samples, 0.83%)</title><rect x="14.9" y="389" width="9.9" height="15.0" fill="rgba(241,80,47,0.82)" rx="2" ry="2" />
<text  x="17.92" y="399.5" ></text>
</g>
<g >
<title>_dl_catch_exception (1,001,001 samples, 0.42%)</title><rect x="19.8" y="373" width="5.0" height="15.0" fill="rgba(241,80,47,0.98)" rx="2" ry="2" />
<text  x="22.83" y="383.5" ></text>
</g>
<g >
<title>[ld-linux-x86-64.so.2] (1,001,001 samples, 0.42%)</title><rect x="19.8" y="309" width="5.0" height="15.0" fill="rgba(241,80,47,0.82)" rx="2" ry="2" />
<text  x="22.83" y="319.5" ></text>
</g>
<g >
<title>[libcrypto.so.3] (2,002,002 samples, 0.83%)</title><rect x="103.4" y="165" width="9.8" height="15.0" fill="rgba(241,80,47,0.68)" rx="2" ry="2" />
<text  x="106.42" y="175.5" ></text>
</g>
<g >
<title>SSL_CTX_free (1,001,001 samples, 0.42%)</title><rect x="246.0" y="437" width="4.9" height="15.0" fill="rgba(55,125,205,0.58)" rx="2" ry="2" />
<text  x="249.00" y="447.5" ></text>
</g>
<g >
<title>[unknown] (1,001,001 samples, 0.42%)</title><rect x="1185.1" y="309" width="4.9" height="15.0" fill="rgba(55,125,205,0.29)" rx="2" ry="2" />
<text  x="1188.08" y="319.5" ></text>
</g>
<g >
<title>[libssl.so.3] (1,001,001 samples, 0.42%)</title><rect x="24.8" y="421" width="4.9" height="15.0" fill="rgba(241,80,47,0.90)" rx="2" ry="2" />
<text  x="27.75" y="431.5" ></text>
</g>
<g >
<title>[libc.so.6] (1,001,001 samples, 0.42%)</title><rect x="108.3" y="53" width="4.9" height="15.0" fill="rgba(55,125,205,0.49)" rx="2" ry="2" />
<text  x="111.33" y="63.5" ></text>
</g>
<g >
<title>[ld-linux-x86-64.so.2] (1,001,001 samples, 0.42%)</title><rect x="19.8" y="341" width="5.0" height="15.0" fill="rgba(241,80,47,0.82)" rx="2" ry="2" />
<text  x="22.83" y="351.5" ></text>
</g>
<g >
<title>CRYPTO_strndup (1,001,001 samples, 0.42%)</title><rect x="24.8" y="245" width="4.9" height="15.0" fill="rgba(55,125,205,0.57)" rx="2" ry="2" />
<text  x="27.75" y="255.5" ></text>
</g>
<g >
<title>SSL_CTX_new_ex (1,001,001 samples, 0.42%)</title><rect x="24.8" y="437" width="4.9" height="15.0" fill="rgba(55,125,205,0.21)" rx="2" ry="2" />
<text  x="27.75" y="447.5" ></text>
</g>
<g >
<title>[libc.so.6] (1,001,001 samples, 0.42%)</title><rect x="108.3" y="37" width="4.9" height="15.0" fill="rgba(55,125,205,0.49)" rx="2" ry="2" />
<text  x="111.33" y="47.5" ></text>
</g>
<g >
<title>[unknown] (5,005,005 samples, 2.08%)</title><rect x="132.9" y="405" width="24.6" height="15.0" fill="rgba(55,125,205,0.29)" rx="2" ry="2" />
<text  x="135.92" y="415.5" >[..</text>
</g>
<g >
<title>[ld-linux-x86-64.so.2] (1,001,001 samples, 0.42%)</title><rect x="14.9" y="373" width="4.9" height="15.0" fill="rgba(241,80,47,0.82)" rx="2" ry="2" />
<text  x="17.92" y="383.5" ></text>
</g>
<g >
<title>[unknown] (181,181,181 samples, 75.42%)</title><rect x="300.1" y="405" width="889.9" height="15.0" fill="rgba(55,125,205,0.29)" rx="2" ry="2" />
<text  x="303.08" y="415.5" >[unknown]</text>
</g>
<g >
<title>[libcrypto.so.3] (1,001,001 samples, 0.42%)</title><rect x="98.5" y="149" width="4.9" height="15.0" fill="rgba(241,80,47,0.68)" rx="2" ry="2" />
<text  x="101.50" y="159.5" ></text>
</g>
<g >
<title>[unknown] (181,181,181 samples, 75.42%)</title><rect x="300.1" y="373" width="889.9" height="15.0" fill="rgba(55,125,205,0.29)" rx="2" ry="2" />
<text  x="303.08" y="383.5" >[unknown]</text>
</g>
<g >
<title>[unknown] (1,001,001 samples, 0.42%)</title><rect x="19.8" y="277" width="5.0" height="15.0" fill="rgba(55,125,205,0.29)" rx="2" ry="2" />
<text  x="22.83" y="287.5" ></text>
</g>
<g >
<title>[libcrypto.so.3] (8,008,008 samples, 3.33%)</title><rect x="39.5" y="197" width="39.3" height="15.0" fill="rgba(241,80,47,0.68)" rx="2" ry="2" />
<text  x="42.50" y="207.5" >[li..</text>
</g>
<g >
<title>[unknown] (5,005,005 samples, 2.08%)</title><rect x="132.9" y="421" width="24.6" height="15.0" fill="rgba(55,125,205,0.29)" rx="2" ry="2" />
<text  x="135.92" y="431.5" >[..</text>
</g>
<g >
<title>[libcrypto.so.3] (1,001,001 samples, 0.42%)</title><rect x="246.0" y="325" width="4.9" height="15.0" fill="rgba(241,80,47,0.68)" rx="2" ry="2" />
<text  x="249.00" y="335.5" ></text>
</g>
<g >
<title>[unknown] (181,181,181 samples, 75.42%)</title><rect x="300.1" y="421" width="889.9" height="15.0" fill="rgba(55,125,205,0.29)" rx="2" ry="2" />
<text  x="303.08" y="431.5" >[unknown]</text>
</g>
<g >
<title>OBJ_NAME_do_all (1,001,001 samples, 0.42%)</title><rect x="24.8" y="325" width="4.9" height="15.0" fill="rgba(55,125,205,0.21)" rx="2" ry="2" />
<text  x="27.75" y="335.5" ></text>
</g>
<g >
<title>[unknown] (5,005,005 samples, 2.08%)</title><rect x="132.9" y="373" width="24.6" height="15.0" fill="rgba(55,125,205,0.29)" rx="2" ry="2" />
<text  x="135.92" y="383.5" >[..</text>
</g>
<g >
<title>[libcrypto.so.3] (1,001,001 samples, 0.42%)</title><rect x="93.6" y="165" width="4.9" height="15.0" fill="rgba(241,80,47,0.68)" rx="2" ry="2" />
<text  x="96.58" y="175.5" ></text>
</g>
<g >
<title>PEM_X509_INFO_read_bio_ex (20,020,020 samples, 8.33%)</title><rect x="29.7" y="389" width="98.3" height="15.0" fill="rgba(241,80,47,0.77)" rx="2" ry="2" />
<text  x="32.67" y="399.5" >PEM_X509_IN..</text>
</g>
<g >
<title>ASN1_item_free (1,001,001 samples, 0.42%)</title><rect x="246.0" y="373" width="4.9" height="15.0" fill="rgba(55,125,205,0.52)" rx="2" ry="2" />
<text  x="249.00" y="383.5" ></text>
</g>
<g >
<title>[libcrypto.so.3] (2,002,002 samples, 0.83%)</title><rect x="103.4" y="149" width="9.8" height="15.0" fill="rgba(241,80,47,0.68)" rx="2" ry="2" />
<text  x="106.42" y="159.5" ></text>
</g>
<g >
<title>[libcrypto.so.3] (19,019,019 samples, 7.92%)</title><rect x="29.7" y="325" width="93.4" height="15.0" fill="rgba(241,80,47,0.68)" rx="2" ry="2" />
<text  x="32.67" y="335.5" >[libcrypto...</text>
</g>
<g >
<title>OSSL_DECODER_from_bio (3,003,003 samples, 1.25%)</title><rect x="103.4" y="245" width="14.8" height="15.0" fill="rgba(55,125,205,0.30)" rx="2" ry="2" />
<text  x="106.42" y="255.5" ></text>
</g>
<g >
<title>X509_STORE_free (1,001,001 samples, 0.42%)</title><rect x="246.0" y="421" width="4.9" height="15.0" fill="rgba(241,80,47,0.64)" rx="2" ry="2" />
<text  x="249.00" y="431.5" ></text>
</g>
<g >
<title>[libcrypto.so.3] (19,019,019 samples, 7.92%)</title><rect x="29.7" y="309" width="93.4" height="15.0" fill="rgba(241,80,47,0.68)" rx="2" ry="2" />
<text  x="32.67" y="319.5" >[libcrypto...</text>
</g>
<g >
<title>[libcrypto.so.3] (3,003,003 samples, 1.25%)</title><rect x="103.4" y="197" width="14.8" height="15.0" fill="rgba(241,80,47,0.68)" rx="2" ry="2" />
<text  x="106.42" y="207.5" ></text>
</g>
<g >
<title>[libcrypto.so.3] (19,019,019 samples, 7.92%)</title><rect x="29.7" y="357" width="93.4" height="15.0" fill="rgba(241,80,47,0.68)" rx="2" ry="2" />
<text  x="32.67" y="367.5" >[libcrypto...</text>
</g>
<g >
<title>[libcrypto.so.3] (3,003,003 samples, 1.25%)</title><rect x="103.4" y="229" width="14.8" height="15.0" fill="rgba(241,80,47,0.68)" rx="2" ry="2" />
<text  x="106.42" y="239.5" ></text>
</g>
<g >
<title>pthread_rwlock_rdlock (1,001,001 samples, 0.42%)</title><rect x="29.7" y="181" width="4.9" height="15.0" fill="rgba(241,80,47,0.94)" rx="2" ry="2" />
<text  x="32.67" y="191.5" ></text>
</g>
<g >
<title>[libcrypto.so.3] (19,019,019 samples, 7.92%)</title><rect x="29.7" y="293" width="93.4" height="15.0" fill="rgba(241,80,47,0.68)" rx="2" ry="2" />
<text  x="32.67" y="303.5" >[libcrypto...</text>
</g>
<g >
<title>OPENSSL_LH_retrieve (1,001,001 samples, 0.42%)</title><rect x="98.5" y="165" width="4.9" height="15.0" fill="rgba(55,125,205,0.44)" rx="2" ry="2" />
<text  x="101.50" y="175.5" ></text>
</g>
<g >
<title>[unknown] (1,001,001 samples, 0.42%)</title><rect x="1185.1" y="325" width="4.9" height="15.0" fill="rgba(55,125,205,0.29)" rx="2" ry="2" />
<text  x="1188.08" y="335.5" ></text>
</g>
<g >
<title>[unknown] (181,181,181 samples, 75.42%)</title><rect x="300.1" y="437" width="889.9" height="15.0" fill="rgba(55,125,205,0.29)" rx="2" ry="2" />
<text  x="303.08" y="447.5" >[unknown]</text>
</g>
<g >
<title>[unknown] (1,001,001 samples, 0.42%)</title><rect x="19.8" y="261" width="5.0" height="15.0" fill="rgba(55,125,205,0.29)" rx="2" ry="2" />
<text  x="22.83" y="271.5" ></text>
</g>
<g >
<title>PEM_read_bio_ex (1,001,001 samples, 0.42%)</title><rect x="123.1" y="373" width="4.9" height="15.0" fill="rgba(241,80,47,0.84)" rx="2" ry="2" />
<text  x="126.08" y="383.5" ></text>
</g>
<g >
<title>[unknown] (5,005,005 samples, 2.08%)</title><rect x="132.9" y="437" width="24.6" height="15.0" fill="rgba(55,125,205,0.29)" rx="2" ry="2" />
<text  x="135.92" y="447.5" >[..</text>
</g>
<g >
<title>[unknown] (5,005,005 samples, 2.08%)</title><rect x="132.9" y="309" width="24.6" height="15.0" fill="rgba(55,125,205,0.29)" rx="2" ry="2" />
<text  x="135.92" y="319.5" >[..</text>
</g>
<g >
<title>[unknown] (181,181,181 samples, 75.42%)</title><rect x="300.1" y="453" width="889.9" height="15.0" fill="rgba(55,125,205,0.29)" rx="2" ry="2" />
<text  x="303.08" y="463.5" >[unknown]</text>
</g>
<g >
<title>[libcrypto.so.3] (1,001,001 samples, 0.42%)</title><rect x="98.5" y="213" width="4.9" height="15.0" fill="rgba(241,80,47,0.68)" rx="2" ry="2" />
<text  x="101.50" y="223.5" ></text>
</g>
<g >
<title>[ld-linux-x86-64.so.2] (3,003,003 samples, 1.25%)</title><rect x="10.0" y="453" width="14.8" height="15.0" fill="rgba(241,80,47,0.82)" rx="2" ry="2" />
<text  x="13.00" y="463.5" ></text>
</g>
<g >
<title>[libcrypto.so.3] (1,001,001 samples, 0.42%)</title><rect x="103.4" y="69" width="4.9" height="15.0" fill="rgba(241,80,47,0.68)" rx="2" ry="2" />
<text  x="106.42" y="79.5" ></text>
</g>
<g >
<title>[libcrypto.so.3] (1,001,001 samples, 0.42%)</title><rect x="246.0" y="293" width="4.9" height="15.0" fill="rgba(241,80,47,0.68)" rx="2" ry="2" />
<text  x="249.00" y="303.5" ></text>
</g>
<g >
<title>[libcrypto.so.3] (3,003,003 samples, 1.25%)</title><rect x="64.1" y="165" width="14.7" height="15.0" fill="rgba(241,80,47,0.68)" rx="2" ry="2" />
<text  x="67.08" y="175.5" ></text>
</g>
<g >
<title>X509_STORE_set_default_paths_ex (21,021,021 samples, 8.75%)</title><rect x="29.7" y="437" width="103.2" height="15.0" fill="rgba(55,125,205,0.41)" rx="2" ry="2" />
<text  x="32.67" y="447.5" >X509_STORE_s..</text>
</g>
<g >
<title>EVP_CIPHER_fetch (1,001,001 samples, 0.42%)</title><rect x="24.8" y="389" width="4.9" height="15.0" fill="rgba(241,80,47,0.67)" rx="2" ry="2" />
<text  x="27.75" y="399.5" ></text>
</g>
<g >
<title>[libc.so.6] (1,001,001 samples, 0.42%)</title><rect x="113.2" y="101" width="5.0" height="15.0" fill="rgba(55,125,205,0.49)" rx="2" ry="2" />
<text  x="116.25" y="111.5" ></text>
</g>
<g >
<title>[libcrypto.so.3] (4,004,004 samples, 1.67%)</title><rect x="78.8" y="181" width="19.7" height="15.0" fill="rgba(241,80,47,0.68)" rx="2" ry="2" />
<text  x="81.83" y="191.5" ></text>
</g>
<g >
<title>CRYPTO_THREAD_unlock (1,001,001 samples, 0.42%)</title><rect x="59.2" y="181" width="4.9" height="15.0" fill="rgba(55,125,205,0.52)" rx="2" ry="2" />
<text  x="62.17" y="191.5" ></text>
</g>
<g >
<title>[libcrypto.so.3] (4,004,004 samples, 1.67%)</title><rect x="78.8" y="197" width="19.7" height="15.0" fill="rgba(241,80,47,0.68)" rx="2" ry="2" />
<text  x="81.83" y="207.5" ></text>
</g>
<g >
<title>[ld-linux-x86-64.so.2] (3,003,003 samples, 1.25%)</title><rect x="10.0" y="437" width="14.8" height="15.0" fill="rgba(241,80,47,0.82)" rx="2" ry="2" />
<text  x="13.00" y="447.5" ></text>
</g>
<g >
<title>[unknown] (5,005,005 samples, 2.08%)</title><rect x="132.9" y="293" width="24.6" height="15.0" fill="rgba(55,125,205,0.29)" rx="2" ry="2" />
<text  x="135.92" y="303.5" >[..</text>
</g>
<g >
<title>[libcrypto.so.3] (2,002,002 samples, 0.83%)</title><rect x="103.4" y="181" width="9.8" height="15.0" fill="rgba(241,80,47,0.68)" rx="2" ry="2" />
<text  x="106.42" y="191.5" ></text>
</g>
<g >
<title>OPENSSL_LH_doall_arg (1,001,001 samples, 0.42%)</title><rect x="24.8" y="309" width="4.9" height="15.0" fill="rgba(55,125,205,0.33)" rx="2" ry="2" />
<text  x="27.75" y="319.5" ></text>
</g>
<g >
<title>CRYPTO_THREAD_read_lock (4,004,004 samples, 1.67%)</title><rect x="39.5" y="181" width="19.7" height="15.0" fill="rgba(55,125,205,0.38)" rx="2" ry="2" />
<text  x="42.50" y="191.5" ></text>
</g>
<g >
<title>[libcrypto.so.3] (10,010,010 samples, 4.17%)</title><rect x="29.7" y="213" width="49.1" height="15.0" fill="rgba(241,80,47,0.68)" rx="2" ry="2" />
<text  x="32.67" y="223.5" >[lib..</text>
</g>
<g >
<title>OPENSSL_sk_pop_free (1,001,001 samples, 0.42%)</title><rect x="246.0" y="405" width="4.9" height="15.0" fill="rgba(241,80,47,0.67)" rx="2" ry="2" />
<text  x="249.00" y="415.5" ></text>
</g>
<g >
<title>OSSL_DECODER_CTX_new_for_pkey (15,015,015 samples, 6.25%)</title><rect x="29.7" y="261" width="73.7" height="15.0" fill="rgba(241,80,47,0.79)" rx="2" ry="2" />
<text  x="32.67" y="271.5" >OSSL_DEC..</text>
</g>
<g >
<title>X509_STORE_add_cert (1,001,001 samples, 0.42%)</title><rect x="128.0" y="389" width="4.9" height="15.0" fill="rgba(55,125,205,0.48)" rx="2" ry="2" />
<text  x="131.00" y="399.5" ></text>
</g>
<g >
<title>[libcrypto.so.3] (1,001,001 samples, 0.42%)</title><rect x="24.8" y="261" width="4.9" height="15.0" fill="rgba(241,80,47,0.68)" rx="2" ry="2" />
<text  x="27.75" y="271.5" ></text>
</g>
<g >
<title>[libssl.so.3] (1,001,001 samples, 0.42%)</title><rect x="24.8" y="405" width="4.9" height="15.0" fill="rgba(241,80,47,0.90)" rx="2" ry="2" />
<text  x="27.75" y="415.5" ></text>
</g>
</g>
</svg>
