<?xml version="1.0" standalone="no"?>
<!DOCTYPE svg PUBLIC "-//W3C//DTD SVG 1.1//EN" "http://www.w3.org/Graphics/SVG/1.1/DTD/svg11.dtd">
<svg version="1.1" width="1200" height="502" onload="init(evt)" viewBox="0 0 1200 502" xmlns="http://www.w3.org/2000/svg" xmlns:xlink="http://www.w3.org/1999/xlink">
<!-- Flame graph stack visualization. See https://github.com/brendangregg/FlameGraph for latest version, and http://www.brendangregg.com/flamegraphs.html for examples. -->
<!-- NOTES:  -->

<style type="text/css">
	text { font-family:Verdana; font-size:12px; fill:rgb(0,0,0); }
	#search, #ignorecase { opacity:0.1; cursor:pointer; }
	#search:hover, #search.show, #ignorecase:hover, #ignorecase.show { opacity:1; }
	#subtitle { text-anchor:middle; font-color:rgb(160,160,160); }
	#title { text-anchor:middle; font-size:17px}
	#unzoom { cursor:pointer; }
	#frames > *:hover { stroke:black; stroke-width:0.5; cursor:pointer; }
	.hide { display:none; }
	.parent { opacity:0.5; }
</style>
<script type="text/ecmascript">
<![CDATA[
	"use strict";
	var details, searchbtn, unzoombtn, matchedtxt, svg, searching, currentSearchTerm, ignorecase, ignorecaseBtn;
	function init(evt) {
		details = document.getElementById("details").firstChild;
		searchbtn = document.getElementById("search");
		ignorecaseBtn = document.getElementById("ignorecase");
		unzoombtn = document.getElementById("unzoom");
		matchedtxt = document.getElementById("matched");
		svg = document.getElementsByTagName("svg")[0];
		searching = 0;
		currentSearchTerm = null;

		// use GET parameters to restore a flamegraphs state.
		var params = get_params();
		if (params.x && params.y)
			zoom(find_group(document.querySelector('[x="' + params.x + '"][y="' + params.y + '"]')));
                if (params.s) search(params.s);
	}

	// event listeners
	window.addEventListener("click", function(e) {
		var target = find_group(e.target);
		if (target) {
			if (target.nodeName == "a") {
				if (e.ctrlKey === false) return;
				e.preventDefault();
			}
			if (target.classList.contains("parent")) unzoom(true);
			zoom(target);
			if (!document.querySelector('.parent')) {
				// we have basically done a clearzoom so clear the url
				var params = get_params();
				if (params.x) delete params.x;
				if (params.y) delete params.y;
				history.replaceState(null, null, parse_params(params));
				unzoombtn.classList.add("hide");
				return;
			}

			// set parameters for zoom state
			var el = target.querySelector("rect");
			if (el && el.attributes && el.attributes.y && el.attributes._orig_x) {
				var params = get_params()
				params.x = el.attributes._orig_x.value;
				params.y = el.attributes.y.value;
				history.replaceState(null, null, parse_params(params));
			}
		}
		else if (e.target.id == "unzoom") clearzoom();
		else if (e.target.id == "search") search_prompt();
		else if (e.target.id == "ignorecase") toggle_ignorecase();
	}, false)

	// mouse-over for info
	// show
	window.addEventListener("mouseover", function(e) {
		var target = find_group(e.target);
		if (target) details.nodeValue = "Function: " + g_to_text(target);
	}, false)

	// clear
	window.addEventListener("mouseout", function(e) {
		var target = find_group(e.target);
		if (target) details.nodeValue = ' ';
	}, false)

	// ctrl-F for search
	// ctrl-I to toggle case-sensitive search
	window.addEventListener("keydown",function (e) {
		if (e.keyCode === 114 || (e.ctrlKey && e.keyCode === 70)) {
			e.preventDefault();
			search_prompt();
		}
		else if (e.ctrlKey && e.keyCode === 73) {
			e.preventDefault();
			toggle_ignorecase();
		}
	}, false)

	// functions
	function get_params() {
		var params = {};
		var paramsarr = window.location.search.substr(1).split('&');
		for (var i = 0; i < paramsarr.length; ++i) {
			var tmp = paramsarr[i].split("=");
			if (!tmp[0] || !tmp[1]) continue;
			params[tmp[0]]  = decodeURIComponent(tmp[1]);
		}
		return params;
	}
	function parse_params(params) {
		var uri = "?";
		for (var key in params) {
			uri += key + '=' + encodeURIComponent(params[key]) + '&';
		}
		if (uri.slice(-1) == "&")
			uri = uri.substring(0, uri.length - 1);
		if (uri == '?')
			uri = window.location.href.split('?')[0];
		return uri;
	}
	function find_child(node, selector) {
		var children = node.querySelectorAll(selector);
		if (children.length) return children[0];
	}
	function find_group(node) {
		var parent = node.parentElement;
		if (!parent) return;
		if (parent.id == "frames") return node;
		return find_group(parent);
	}
	function orig_save(e, attr, val) {
		if (e.attributes["_orig_" + attr] != undefined) return;
		if (e.attributes[attr] == undefined) return;
		if (val == undefined) val = e.attributes[attr].value;
		e.setAttribute("_orig_" + attr, val);
	}
	function orig_load(e, attr) {
		if (e.attributes["_orig_"+attr] == undefined) return;
		e.attributes[attr].value = e.attributes["_orig_" + attr].value;
		e.removeAttribute("_orig_"+attr);
	}
	function g_to_text(e) {
		var text = find_child(e, "title").firstChild.nodeValue;
		return (text)
	}
	function g_to_func(e) {
		var func = g_to_text(e);
		// if there's any manipulation we want to do to the function
		// name before it's searched, do it here before returning.
		return (func);
	}
	function update_text(e) {
		var r = find_child(e, "rect");
		var t = find_child(e, "text");
		var w = parseFloat(r.attributes.width.value) -3;
		var txt = find_child(e, "title").textContent.replace(/\([^(]*\)$/,"");
		t.attributes.x.value = parseFloat(r.attributes.x.value) + 3;

		// Smaller than this size won't fit anything
		if (w < 2 * 12 * 0.59) {
			t.textContent = "";
			return;
		}

		t.textContent = txt;
		var sl = t.getSubStringLength(0, txt.length);
		// check if only whitespace or if we can fit the entire string into width w
		if (/^ *$/.test(txt) || sl < w)
			return;

		// this isn't perfect, but gives a good starting point
		// and avoids calling getSubStringLength too often
		var start = Math.floor((w/sl) * txt.length);
		for (var x = start; x > 0; x = x-2) {
			if (t.getSubStringLength(0, x + 2) <= w) {
				t.textContent = txt.substring(0, x) + "..";
				return;
			}
		}
		t.textContent = "";
	}

	// zoom
	function zoom_reset(e) {
		if (e.attributes != undefined) {
			orig_load(e, "x");
			orig_load(e, "width");
		}
		if (e.childNodes == undefined) return;
		for (var i = 0, c = e.childNodes; i < c.length; i++) {
			zoom_reset(c[i]);
		}
	}
	function zoom_child(e, x, ratio) {
		if (e.attributes != undefined) {
			if (e.attributes.x != undefined) {
				orig_save(e, "x");
				e.attributes.x.value = (parseFloat(e.attributes.x.value) - x - 10) * ratio + 10;
				if (e.tagName == "text")
					e.attributes.x.value = find_child(e.parentNode, "rect[x]").attributes.x.value + 3;
			}
			if (e.attributes.width != undefined) {
				orig_save(e, "width");
				e.attributes.width.value = parseFloat(e.attributes.width.value) * ratio;
			}
		}

		if (e.childNodes == undefined) return;
		for (var i = 0, c = e.childNodes; i < c.length; i++) {
			zoom_child(c[i], x - 10, ratio);
		}
	}
	function zoom_parent(e) {
		if (e.attributes) {
			if (e.attributes.x != undefined) {
				orig_save(e, "x");
				e.attributes.x.value = 10;
			}
			if (e.attributes.width != undefined) {
				orig_save(e, "width");
				e.attributes.width.value = parseInt(svg.width.baseVal.value) - (10 * 2);
			}
		}
		if (e.childNodes == undefined) return;
		for (var i = 0, c = e.childNodes; i < c.length; i++) {
			zoom_parent(c[i]);
		}
	}
	function zoom(node) {
		var attr = find_child(node, "rect").attributes;
		var width = parseFloat(attr.width.value);
		var xmin = parseFloat(attr.x.value);
		var xmax = parseFloat(xmin + width);
		var ymin = parseFloat(attr.y.value);
		var ratio = (svg.width.baseVal.value - 2 * 10) / width;

		// XXX: Workaround for JavaScript float issues (fix me)
		var fudge = 0.0001;

		unzoombtn.classList.remove("hide");

		var el = document.getElementById("frames").children;
		for (var i = 0; i < el.length; i++) {
			var e = el[i];
			var a = find_child(e, "rect").attributes;
			var ex = parseFloat(a.x.value);
			var ew = parseFloat(a.width.value);
			var upstack;
			// Is it an ancestor
			if (0 == 0) {
				upstack = parseFloat(a.y.value) > ymin;
			} else {
				upstack = parseFloat(a.y.value) < ymin;
			}
			if (upstack) {
				// Direct ancestor
				if (ex <= xmin && (ex+ew+fudge) >= xmax) {
					e.classList.add("parent");
					zoom_parent(e);
					update_text(e);
				}
				// not in current path
				else
					e.classList.add("hide");
			}
			// Children maybe
			else {
				// no common path
				if (ex < xmin || ex + fudge >= xmax) {
					e.classList.add("hide");
				}
				else {
					zoom_child(e, xmin, ratio);
					update_text(e);
				}
			}
		}
		search();
	}
	function unzoom(dont_update_text) {
		unzoombtn.classList.add("hide");
		var el = document.getElementById("frames").children;
		for(var i = 0; i < el.length; i++) {
			el[i].classList.remove("parent");
			el[i].classList.remove("hide");
			zoom_reset(el[i]);
			if(!dont_update_text) update_text(el[i]);
		}
		search();
	}
	function clearzoom() {
		unzoom();

		// remove zoom state
		var params = get_params();
		if (params.x) delete params.x;
		if (params.y) delete params.y;
		history.replaceState(null, null, parse_params(params));
	}

	// search
	function toggle_ignorecase() {
		ignorecase = !ignorecase;
		if (ignorecase) {
			ignorecaseBtn.classList.add("show");
		} else {
			ignorecaseBtn.classList.remove("show");
		}
		reset_search();
		search();
	}
	function reset_search() {
		var el = document.querySelectorAll("#frames rect");
		for (var i = 0; i < el.length; i++) {
			orig_load(el[i], "fill")
		}
		var params = get_params();
		delete params.s;
		history.replaceState(null, null, parse_params(params));
	}
	function search_prompt() {
		if (!searching) {
			var term = prompt("Enter a search term (regexp " +
			    "allowed, eg: ^ext4_)"
			    + (ignorecase ? ", ignoring case" : "")
			    + "\nPress Ctrl-i to toggle case sensitivity", "");
			if (term != null) search(term);
		} else {
			reset_search();
			searching = 0;
			currentSearchTerm = null;
			searchbtn.classList.remove("show");
			searchbtn.firstChild.nodeValue = "Search"
			matchedtxt.classList.add("hide");
			matchedtxt.firstChild.nodeValue = ""
		}
	}
	function search(term) {
		if (term) currentSearchTerm = term;
		if (currentSearchTerm === null) return;

		var re = new RegExp(currentSearchTerm, ignorecase ? 'i' : '');
		var el = document.getElementById("frames").children;
		var matches = new Object();
		var maxwidth = 0;
		for (var i = 0; i < el.length; i++) {
			var e = el[i];
			var func = g_to_func(e);
			var rect = find_child(e, "rect");
			if (func == null || rect == null)
				continue;

			// Save max width. Only works as we have a root frame
			var w = parseFloat(rect.attributes.width.value);
			if (w > maxwidth)
				maxwidth = w;

			if (func.match(re)) {
				// highlight
				var x = parseFloat(rect.attributes.x.value);
				orig_save(rect, "fill");
				rect.attributes.fill.value = "rgb(230,0,230)";

				// remember matches
				if (matches[x] == undefined) {
					matches[x] = w;
				} else {
					if (w > matches[x]) {
						// overwrite with parent
						matches[x] = w;
					}
				}
				searching = 1;
			}
		}
		if (!searching)
			return;
		var params = get_params();
		params.s = currentSearchTerm;
		history.replaceState(null, null, parse_params(params));

		searchbtn.classList.add("show");
		searchbtn.firstChild.nodeValue = "Reset Search";

		// calculate percent matched, excluding vertical overlap
		var count = 0;
		var lastx = -1;
		var lastw = 0;
		var keys = Array();
		for (k in matches) {
			if (matches.hasOwnProperty(k))
				keys.push(k);
		}
		// sort the matched frames by their x location
		// ascending, then width descending
		keys.sort(function(a, b){
			return a - b;
		});
		// Step through frames saving only the biggest bottom-up frames
		// thanks to the sort order. This relies on the tree property
		// where children are always smaller than their parents.
		var fudge = 0.0001;	// JavaScript floating point
		for (var k in keys) {
			var x = parseFloat(keys[k]);
			var w = matches[keys[k]];
			if (x >= lastx + lastw - fudge) {
				count += w;
				lastx = x;
				lastw = w;
			}
		}
		// display matched percent
		matchedtxt.classList.remove("hide");
		var pct = 100 * count / maxwidth;
		if (pct != 100) pct = pct.toFixed(1)
		matchedtxt.firstChild.nodeValue = "Matched: " + pct + "%";
	}
]]>
</script>
<rect x="0.0" y="0" width="1200.0" height="502.0" fill="url(#background)"  />
<text id="details" x="10.00" y="485" > </text>
<text id="unzoom" x="10.00" y="24" class="hide">Reset Zoom</text>
<text id="search" x="1090.00" y="24" >Search</text>
<text id="ignorecase" x="1174.00" y="24" >ic</text>
<text id="matched" x="1090.00" y="485" > </text>
<g id="frames">
<g >
<title>CRYPTO_THREAD_unlock (1,001,001 samples, 1.00%)</title><rect x="198.8" y="69" width="11.8" height="15.0" fill="rgba(55,125,205,0.52)" rx="2" ry="2" />
<text  x="201.80" y="79.5" ></text>
</g>
<g >
<title>[unknown] (1,001,001 samples, 1.00%)</title><rect x="10.0" y="213" width="11.8" height="15.0" fill="rgba(55,125,205,0.29)" rx="2" ry="2" />
<text  x="13.00" y="223.5" ></text>
</g>
<g >
<title>[libcrypto.so.3] (1,001,001 samples, 1.00%)</title><rect x="281.4" y="213" width="11.8" height="15.0" fill="rgba(241,80,47,0.68)" rx="2" ry="2" />
<text  x="284.40" y="223.5" ></text>
</g>
<g >
<title>[libcrypto.so.3] (2,002,002 samples, 2.00%)</title><rect x="257.8" y="197" width="23.6" height="15.0" fill="rgba(241,80,47,0.68)" rx="2" ry="2" />
<text  x="260.80" y="207.5" >[..</text>
</g>
<g >
<title>[libcrypto.so.3] (1,001,001 samples, 1.00%)</title><rect x="33.6" y="117" width="11.8" height="15.0" fill="rgba(241,80,47,0.68)" rx="2" ry="2" />
<text  x="36.60" y="127.5" ></text>
</g>
<g >
<title>[libc.so.6] (1,001,001 samples, 1.00%)</title><rect x="69.0" y="69" width="11.8" height="15.0" fill="rgba(55,125,205,0.49)" rx="2" ry="2" />
<text  x="72.00" y="79.5" ></text>
</g>
<g >
<title>[unknown] (1,001,001 samples, 1.00%)</title><rect x="10.0" y="245" width="11.8" height="15.0" fill="rgba(55,125,205,0.29)" rx="2" ry="2" />
<text  x="13.00" y="255.5" ></text>
</g>
<g >
<title>EVP_CIPHER_fetch (1,001,001 samples, 1.00%)</title><rect x="33.6" y="357" width="11.8" height="15.0" fill="rgba(241,80,47,0.67)" rx="2" ry="2" />
<text  x="36.60" y="367.5" ></text>
</g>
<g >
<title>[libcrypto.so.3] (5,005,005 samples, 5.00%)</title><rect x="92.6" y="133" width="59.0" height="15.0" fill="rgba(241,80,47,0.68)" rx="2" ry="2" />
<text  x="95.60" y="143.5" >[libcr..</text>
</g>
<g >
<title>[libssl.so.3] (1,001,001 samples, 1.00%)</title><rect x="33.6" y="389" width="11.8" height="15.0" fill="rgba(241,80,47,0.90)" rx="2" ry="2" />
<text  x="36.60" y="399.5" ></text>
</g>
<g >
<title>[libcrypto.so.3] (21,021,021 samples, 21.00%)</title><rect x="45.4" y="325" width="247.8" height="15.0" fill="rgba(241,80,47,0.68)" rx="2" ry="2" />
<text  x="48.40" y="335.5" >[libcrypto.so.3]</text>
</g>
<g >
<title>realloc (1,001,001 samples, 1.00%)</title><rect x="69.0" y="85" width="11.8" height="15.0" fill="rgba(241,80,47,0.86)" rx="2" ry="2" />
<text  x="72.00" y="95.5" ></text>
</g>
<g >
<title>[libcrypto.so.3] (20,020,020 samples, 20.00%)</title><rect x="57.2" y="245" width="236.0" height="15.0" fill="rgba(241,80,47,0.68)" rx="2" ry="2" />
<text  x="60.20" y="255.5" >[libcrypto.so.3]</text>
</g>
<g >
<title>[ld-linux-x86-64.so.2] (1,001,001 samples, 1.00%)</title><rect x="10.0" y="277" width="11.8" height="15.0" fill="rgba(241,80,47,0.82)" rx="2" ry="2" />
<text  x="13.00" y="287.5" ></text>
</g>
<g >
<title>[unknown] (25,025,025 samples, 25.00%)</title><rect x="895.0" y="277" width="295.0" height="15.0" fill="rgba(55,125,205,0.29)" rx="2" ry="2" />
<text  x="898.00" y="287.5" >[unknown]</text>
</g>
<g >
<title>ASN1_item_free (1,001,001 samples, 1.00%)</title><rect x="269.6" y="165" width="11.8" height="15.0" fill="rgba(55,125,205,0.52)" rx="2" ry="2" />
<text  x="272.60" y="175.5" ></text>
</g>
<g >
<title>[libcrypto.so.3] (1,001,001 samples, 1.00%)</title><rect x="21.8" y="341" width="11.8" height="15.0" fill="rgba(241,80,47,0.68)" rx="2" ry="2" />
<text  x="24.80" y="351.5" ></text>
</g>
<g >
<title>[unknown] (75,075,075 samples, 75.00%)</title><rect x="305.0" y="421" width="885.0" height="15.0" fill="rgba(55,125,205,0.29)" rx="2" ry="2" />
<text  x="308.00" y="431.5" >[unknown]</text>
</g>
<g >
<title>OSSL_DECODER_from_bio (2,002,002 samples, 2.00%)</title><rect x="257.8" y="213" width="23.6" height="15.0" fill="rgba(55,125,205,0.30)" rx="2" ry="2" />
<text  x="260.80" y="223.5" >O..</text>
</g>
<g >
<title>[libcrypto.so.3] (2,002,002 samples, 2.00%)</title><rect x="257.8" y="181" width="23.6" height="15.0" fill="rgba(241,80,47,0.68)" rx="2" ry="2" />
<text  x="260.80" y="191.5" >[..</text>
</g>
<g >
<title>[libcrypto.so.3] (1,001,001 samples, 1.00%)</title><rect x="234.2" y="101" width="11.8" height="15.0" fill="rgba(241,80,47,0.68)" rx="2" ry="2" />
<text  x="237.20" y="111.5" ></text>
</g>
<g >
<title>[ld-linux-x86-64.so.2] (1,001,001 samples, 1.00%)</title><rect x="10.0" y="309" width="11.8" height="15.0" fill="rgba(241,80,47,0.82)" rx="2" ry="2" />
<text  x="13.00" y="319.5" ></text>
</g>
<g >
<title>[unknown] (1,001,001 samples, 1.00%)</title><rect x="10.0" y="229" width="11.8" height="15.0" fill="rgba(55,125,205,0.29)" rx="2" ry="2" />
<text  x="13.00" y="239.5" ></text>
</g>
<g >
<title>[libcrypto.so.3] (1,001,001 samples, 1.00%)</title><rect x="281.4" y="133" width="11.8" height="15.0" fill="rgba(241,80,47,0.68)" rx="2" ry="2" />
<text  x="284.40" y="143.5" ></text>
</g>
<g >
<title>[libcrypto.so.3] (1,001,001 samples, 1.00%)</title><rect x="246.0" y="197" width="11.8" height="15.0" fill="rgba(241,80,47,0.68)" rx="2" ry="2" />
<text  x="249.00" y="207.5" ></text>
</g>
<g >
<title>OPENSSL_LH_insert (1,001,001 samples, 1.00%)</title><rect x="21.8" y="293" width="11.8" height="15.0" fill="rgba(55,125,205,0.44)" rx="2" ry="2" />
<text  x="24.80" y="303.5" ></text>
</g>
<g >
<title>pthread_rwlock_unlock (1,001,001 samples, 1.00%)</title><rect x="80.8" y="133" width="11.8" height="15.0" fill="rgba(55,125,205,0.40)" rx="2" ry="2" />
<text  x="83.80" y="143.5" ></text>
</g>
<g >
<title>[unknown] (25,025,025 samples, 25.00%)</title><rect x="895.0" y="309" width="295.0" height="15.0" fill="rgba(55,125,205,0.29)" rx="2" ry="2" />
<text  x="898.00" y="319.5" >[unknown]</text>
</g>
<g >
<title>[libcrypto.so.3] (5,005,005 samples, 5.00%)</title><rect x="187.0" y="149" width="59.0" height="15.0" fill="rgba(241,80,47,0.68)" rx="2" ry="2" />
<text  x="190.00" y="159.5" >[libcr..</text>
</g>
<g >
<title>[libcrypto.so.3] (1,001,001 samples, 1.00%)</title><rect x="281.4" y="229" width="11.8" height="15.0" fill="rgba(241,80,47,0.68)" rx="2" ry="2" />
<text  x="284.40" y="239.5" ></text>
</g>
<g >
<title>EVP_KEYMGMT_is_a (1,001,001 samples, 1.00%)</title><rect x="175.2" y="197" width="11.8" height="15.0" fill="rgba(55,125,205,0.21)" rx="2" ry="2" />
<text  x="178.20" y="207.5" ></text>
</g>
<g >
<title>getenv (1,001,001 samples, 1.00%)</title><rect x="293.2" y="373" width="11.8" height="15.0" fill="rgba(55,125,205,0.46)" rx="2" ry="2" />
<text  x="296.20" y="383.5" ></text>
</g>
<g >
<title>X509_load_cert_crl_file_ex (21,021,021 samples, 21.00%)</title><rect x="45.4" y="373" width="247.8" height="15.0" fill="rgba(241,80,47,0.96)" rx="2" ry="2" />
<text  x="48.40" y="383.5" >X509_load_cert_crl_file_ex</text>
</g>
<g >
<title>[libcrypto.so.3] (5,005,005 samples, 5.00%)</title><rect x="187.0" y="165" width="59.0" height="15.0" fill="rgba(241,80,47,0.68)" rx="2" ry="2" />
<text  x="190.00" y="175.5" >[libcr..</text>
</g>
<g >
<title>swapper (75,075,075 samples, 75.00%)</title><rect x="305.0" y="437" width="885.0" height="15.0" fill="rgba(241,80,47,0.75)" rx="2" ry="2" />
<text  x="308.00" y="447.5" >swapper</text>
</g>
<g >
<title>pthread_rwlock_unlock (1,001,001 samples, 1.00%)</title><rect x="234.2" y="53" width="11.8" height="15.0" fill="rgba(55,125,205,0.40)" rx="2" ry="2" />
<text  x="237.20" y="63.5" ></text>
</g>
<g >
<title>EVP_KEYMGMT_do_all_provided (1,001,001 samples, 1.00%)</title><rect x="163.4" y="197" width="11.8" height="15.0" fill="rgba(241,80,47,0.80)" rx="2" ry="2" />
<text  x="166.40" y="207.5" ></text>
</g>
<g >
<title>[libcrypto.so.3] (1,001,001 samples, 1.00%)</title><rect x="33.6" y="213" width="11.8" height="15.0" fill="rgba(241,80,47,0.68)" rx="2" ry="2" />
<text  x="36.60" y="223.5" ></text>
</g>
<g >
<title>[libcrypto.so.3] (8,008,008 samples, 8.00%)</title><rect x="163.4" y="213" width="94.4" height="15.0" fill="rgba(241,80,47,0.68)" rx="2" ry="2" />
<text  x="166.40" y="223.5" >[libcrypto...</text>
</g>
<g >
<title>[unknown] (75,075,075 samples, 75.00%)</title><rect x="305.0" y="325" width="885.0" height="15.0" fill="rgba(55,125,205,0.29)" rx="2" ry="2" />
<text  x="308.00" y="335.5" >[unknown]</text>
</g>
<g >
<title>OPENSSL_LH_retrieve (2,002,002 samples, 2.00%)</title><rect x="210.6" y="69" width="23.6" height="15.0" fill="rgba(55,125,205,0.44)" rx="2" ry="2" />
<text  x="213.60" y="79.5" >O..</text>
</g>
<g >
<title>[libcrypto.so.3] (1,001,001 samples, 1.00%)</title><rect x="21.8" y="261" width="11.8" height="15.0" fill="rgba(241,80,47,0.68)" rx="2" ry="2" />
<text  x="24.80" y="271.5" ></text>
</g>
<g >
<title>[libcrypto.so.3] (1,001,001 samples, 1.00%)</title><rect x="33.6" y="261" width="11.8" height="15.0" fill="rgba(241,80,47,0.68)" rx="2" ry="2" />
<text  x="36.60" y="271.5" ></text>
</g>
<g >
<title>malloc (1,001,001 samples, 1.00%)</title><rect x="151.6" y="149" width="11.8" height="15.0" fill="rgba(241,80,47,0.61)" rx="2" ry="2" />
<text  x="154.60" y="159.5" ></text>
</g>
<g >
<title>[libcrypto.so.3] (1,001,001 samples, 1.00%)</title><rect x="21.8" y="325" width="11.8" height="15.0" fill="rgba(241,80,47,0.68)" rx="2" ry="2" />
<text  x="24.80" y="335.5" ></text>
</g>
<g >
<title>[unknown] (75,075,075 samples, 75.00%)</title><rect x="305.0" y="373" width="885.0" height="15.0" fill="rgba(55,125,205,0.29)" rx="2" ry="2" />
<text  x="308.00" y="383.5" >[unknown]</text>
</g>
<g >
<title>[libcrypto.so.3] (1,001,001 samples, 1.00%)</title><rect x="139.8" y="117" width="11.8" height="15.0" fill="rgba(241,80,47,0.68)" rx="2" ry="2" />
<text  x="142.80" y="127.5" ></text>
</g>
<g >
<title>OBJ_NAME_add (1,001,001 samples, 1.00%)</title><rect x="21.8" y="309" width="11.8" height="15.0" fill="rgba(241,80,47,0.70)" rx="2" ry="2" />
<text  x="24.80" y="319.5" ></text>
</g>
<g >
<title>[libcrypto.so.3] (1,001,001 samples, 1.00%)</title><rect x="269.6" y="149" width="11.8" height="15.0" fill="rgba(241,80,47,0.68)" rx="2" ry="2" />
<text  x="272.60" y="159.5" ></text>
</g>
<g >
<title>[libssl.so.3] (1,001,001 samples, 1.00%)</title><rect x="33.6" y="373" width="11.8" height="15.0" fill="rgba(241,80,47,0.90)" rx="2" ry="2" />
<text  x="36.60" y="383.5" ></text>
</g>
<g >
<title>ASN1_item_ex_i2d (1,001,001 samples, 1.00%)</title><rect x="281.4" y="181" width="11.8" height="15.0" fill="rgba(241,80,47,0.71)" rx="2" ry="2" />
<text  x="284.40" y="191.5" ></text>
</g>
<g >
<title>X509_STORE_set_default_paths_ex (22,022,022 samples, 22.00%)</title><rect x="45.4" y="405" width="259.6" height="15.0" fill="rgba(55,125,205,0.41)" rx="2" ry="2" />
<text  x="48.40" y="415.5" >X509_STORE_set_default_paths_ex</text>
</g>
<g >
<title>SSL_CTX_new_ex (1,001,001 samples, 1.00%)</title><rect x="33.6" y="405" width="11.8" height="15.0" fill="rgba(55,125,205,0.21)" rx="2" ry="2" />
<text  x="36.60" y="415.5" ></text>
</g>
<g >
<title>[libcrypto.so.3] (1,001,001 samples, 1.00%)</title><rect x="33.6" y="309" width="11.8" height="15.0" fill="rgba(241,80,47,0.68)" rx="2" ry="2" />
<text  x="36.60" y="319.5" ></text>
</g>
<g >
<title>OSSL_DECODER_do_all_provided (1,001,001 samples, 1.00%)</title><rect x="69.0" y="197" width="11.8" height="15.0" fill="rgba(241,80,47,0.85)" rx="2" ry="2" />
<text  x="72.00" y="207.5" ></text>
</g>
<g >
<title>[libcrypto.so.3] (1,001,001 samples, 1.00%)</title><rect x="33.6" y="197" width="11.8" height="15.0" fill="rgba(241,80,47,0.68)" rx="2" ry="2" />
<text  x="36.60" y="207.5" ></text>
</g>
<g >
<title>git2 (25,025,025 samples, 25.00%)</title><rect x="10.0" y="437" width="295.0" height="15.0" fill="rgba(241,80,47,0.88)" rx="2" ry="2" />
<text  x="13.00" y="447.5" >git2</text>
</g>
<g >
<title>pthread_rwlock_unlock (1,001,001 samples, 1.00%)</title><rect x="198.8" y="53" width="11.8" height="15.0" fill="rgba(55,125,205,0.40)" rx="2" ry="2" />
<text  x="201.80" y="63.5" ></text>
</g>
<g >
<title>ASN1_item_d2i_ex (21,021,021 samples, 21.00%)</title><rect x="45.4" y="341" width="247.8" height="15.0" fill="rgba(241,80,47,0.71)" rx="2" ry="2" />
<text  x="48.40" y="351.5" >ASN1_item_d2i_ex</text>
</g>
<g >
<title>[libcrypto.so.3] (5,005,005 samples, 5.00%)</title><rect x="187.0" y="181" width="59.0" height="15.0" fill="rgba(241,80,47,0.68)" rx="2" ry="2" />
<text  x="190.00" y="191.5" >[libcr..</text>
</g>
<g >
<title>[libcrypto.so.3] (2,002,002 samples, 2.00%)</title><rect x="210.6" y="53" width="23.6" height="15.0" fill="rgba(241,80,47,0.68)" rx="2" ry="2" />
<text  x="213.60" y="63.5" >[..</text>
</g>
<g >
<title>[ld-linux-x86-64.so.2] (1,001,001 samples, 1.00%)</title><rect x="10.0" y="405" width="11.8" height="15.0" fill="rgba(241,80,47,0.82)" rx="2" ry="2" />
<text  x="13.00" y="415.5" ></text>
</g>
<g >
<title>OSSL_DECODER_from_data (2,002,002 samples, 2.00%)</title><rect x="257.8" y="229" width="23.6" height="15.0" fill="rgba(241,80,47,0.77)" rx="2" ry="2" />
<text  x="260.80" y="239.5" >O..</text>
</g>
<g >
<title>[libcrypto.so.3] (1,001,001 samples, 1.00%)</title><rect x="281.4" y="165" width="11.8" height="15.0" fill="rgba(241,80,47,0.68)" rx="2" ry="2" />
<text  x="284.40" y="175.5" ></text>
</g>
<g >
<title>[libcrypto.so.3] (21,021,021 samples, 21.00%)</title><rect x="45.4" y="293" width="247.8" height="15.0" fill="rgba(241,80,47,0.68)" rx="2" ry="2" />
<text  x="48.40" y="303.5" >[libcrypto.so.3]</text>
</g>
<g >
<title>[libcrypto.so.3] (7,007,007 samples, 7.00%)</title><rect x="80.8" y="181" width="82.6" height="15.0" fill="rgba(241,80,47,0.68)" rx="2" ry="2" />
<text  x="83.80" y="191.5" >[libcrypt..</text>
</g>
<g >
<title>[unknown] (75,075,075 samples, 75.00%)</title><rect x="305.0" y="341" width="885.0" height="15.0" fill="rgba(55,125,205,0.29)" rx="2" ry="2" />
<text  x="308.00" y="351.5" >[unknown]</text>
</g>
<g >
<title>CRYPTO_THREAD_unlock (1,001,001 samples, 1.00%)</title><rect x="80.8" y="149" width="11.8" height="15.0" fill="rgba(55,125,205,0.52)" rx="2" ry="2" />
<text  x="83.80" y="159.5" ></text>
</g>
<g >
<title>[libcrypto.so.3] (1,001,001 samples, 1.00%)</title><rect x="163.4" y="149" width="11.8" height="15.0" fill="rgba(241,80,47,0.68)" rx="2" ry="2" />
<text  x="166.40" y="159.5" ></text>
</g>
<g >
<title>[libcrypto.so.3] (1,001,001 samples, 1.00%)</title><rect x="234.2" y="117" width="11.8" height="15.0" fill="rgba(241,80,47,0.68)" rx="2" ry="2" />
<text  x="237.20" y="127.5" ></text>
</g>
<g >
<title>[libcrypto.so.3] (1,001,001 samples, 1.00%)</title><rect x="281.4" y="149" width="11.8" height="15.0" fill="rgba(241,80,47,0.68)" rx="2" ry="2" />
<text  x="284.40" y="159.5" ></text>
</g>
<g >
<title>[libcrypto.so.3] (1,001,001 samples, 1.00%)</title><rect x="175.2" y="181" width="11.8" height="15.0" fill="rgba(241,80,47,0.68)" rx="2" ry="2" />
<text  x="178.20" y="191.5" ></text>
</g>
<g >
<title>OSSL_DECODER_is_a (7,007,007 samples, 7.00%)</title><rect x="80.8" y="197" width="82.6" height="15.0" fill="rgba(55,125,205,0.25)" rx="2" ry="2" />
<text  x="83.80" y="207.5" >OSSL_DECO..</text>
</g>
<g >
<title>[libcrypto.so.3] (1,001,001 samples, 1.00%)</title><rect x="33.6" y="341" width="11.8" height="15.0" fill="rgba(241,80,47,0.68)" rx="2" ry="2" />
<text  x="36.60" y="351.5" ></text>
</g>
<g >
<title>OPENSSL_LH_retrieve (1,001,001 samples, 1.00%)</title><rect x="33.6" y="149" width="11.8" height="15.0" fill="rgba(55,125,205,0.44)" rx="2" ry="2" />
<text  x="36.60" y="159.5" ></text>
</g>
<g >
<title>[unknown] (1,001,001 samples, 1.00%)</title><rect x="10.0" y="181" width="11.8" height="15.0" fill="rgba(55,125,205,0.29)" rx="2" ry="2" />
<text  x="13.00" y="191.5" ></text>
</g>
<g >
<title>[libcrypto.so.3] (1,001,001 samples, 1.00%)</title><rect x="33.6" y="277" width="11.8" height="15.0" fill="rgba(241,80,47,0.68)" rx="2" ry="2" />
<text  x="36.60" y="287.5" ></text>
</g>
<g >
<title>OPENSSL_sk_insert (1,001,001 samples, 1.00%)</title><rect x="69.0" y="117" width="11.8" height="15.0" fill="rgba(241,80,47,0.79)" rx="2" ry="2" />
<text  x="72.00" y="127.5" ></text>
</g>
<g >
<title>[libcrypto.so.3] (3,003,003 samples, 3.00%)</title><rect x="198.8" y="101" width="35.4" height="15.0" fill="rgba(241,80,47,0.68)" rx="2" ry="2" />
<text  x="201.80" y="111.5" >[l..</text>
</g>
<g >
<title>[unknown] (75,075,075 samples, 75.00%)</title><rect x="305.0" y="357" width="885.0" height="15.0" fill="rgba(55,125,205,0.29)" rx="2" ry="2" />
<text  x="308.00" y="367.5" >[unknown]</text>
</g>
<g >
<title>[libcrypto.so.3] (1,001,001 samples, 1.00%)</title><rect x="21.8" y="245" width="11.8" height="15.0" fill="rgba(241,80,47,0.68)" rx="2" ry="2" />
<text  x="24.80" y="255.5" ></text>
</g>
<g >
<title>[libcrypto.so.3] (1,001,001 samples, 1.00%)</title><rect x="33.6" y="229" width="11.8" height="15.0" fill="rgba(241,80,47,0.68)" rx="2" ry="2" />
<text  x="36.60" y="239.5" ></text>
</g>
<g >
<title>_dl_catch_exception (1,001,001 samples, 1.00%)</title><rect x="10.0" y="341" width="11.8" height="15.0" fill="rgba(241,80,47,0.98)" rx="2" ry="2" />
<text  x="13.00" y="351.5" ></text>
</g>
<g >
<title>[libcrypto.so.3] (1,001,001 samples, 1.00%)</title><rect x="69.0" y="101" width="11.8" height="15.0" fill="rgba(241,80,47,0.68)" rx="2" ry="2" />
<text  x="72.00" y="111.5" ></text>
</g>
<g >
<title>[libcrypto.so.3] (1,001,001 samples, 1.00%)</title><rect x="222.4" y="37" width="11.8" height="15.0" fill="rgba(241,80,47,0.68)" rx="2" ry="2" />
<text  x="225.40" y="47.5" ></text>
</g>
<g >
<title>OPENSSL_init_ssl (1,001,001 samples, 1.00%)</title><rect x="21.8" y="405" width="11.8" height="15.0" fill="rgba(241,80,47,0.86)" rx="2" ry="2" />
<text  x="24.80" y="415.5" ></text>
</g>
<g >
<title>all (100,100,100 samples, 100%)</title><rect x="10.0" y="453" width="1180.0" height="15.0" fill="rgba(55,125,205,0.34)" rx="2" ry="2" />
<text  x="13.00" y="463.5" ></text>
</g>
<g >
<title>OSSL_DECODER_is_a (3,003,003 samples, 3.00%)</title><rect x="198.8" y="117" width="35.4" height="15.0" fill="rgba(55,125,205,0.25)" rx="2" ry="2" />
<text  x="201.80" y="127.5" >OS..</text>
</g>
<g >
<title>[unknown] (75,075,075 samples, 75.00%)</title><rect x="305.0" y="405" width="885.0" height="15.0" fill="rgba(55,125,205,0.29)" rx="2" ry="2" />
<text  x="308.00" y="415.5" >[unknown]</text>
</g>
<g >
<title>OPENSSL_LH_retrieve (1,001,001 samples, 1.00%)</title><rect x="175.2" y="133" width="11.8" height="15.0" fill="rgba(55,125,205,0.44)" rx="2" ry="2" />
<text  x="178.20" y="143.5" ></text>
</g>
<g >
<title>[libcrypto.so.3] (20,020,020 samples, 20.00%)</title><rect x="57.2" y="261" width="236.0" height="15.0" fill="rgba(241,80,47,0.68)" rx="2" ry="2" />
<text  x="60.20" y="271.5" >[libcrypto.so.3]</text>
</g>
<g >
<title>[libcrypto.so.3] (1,001,001 samples, 1.00%)</title><rect x="163.4" y="165" width="11.8" height="15.0" fill="rgba(241,80,47,0.68)" rx="2" ry="2" />
<text  x="166.40" y="175.5" ></text>
</g>
<g >
<title>OSSL_DECODER_CTX_add_extra (9,009,009 samples, 9.00%)</title><rect x="57.2" y="213" width="106.2" height="15.0" fill="rgba(241,80,47,0.76)" rx="2" ry="2" />
<text  x="60.20" y="223.5" >OSSL_DECODER_..</text>
</g>
<g >
<title>[libc.so.6] (1,001,001 samples, 1.00%)</title><rect x="21.8" y="357" width="11.8" height="15.0" fill="rgba(55,125,205,0.49)" rx="2" ry="2" />
<text  x="24.80" y="367.5" ></text>
</g>
<g >
<title>PEM_X509_INFO_read_bio_ex (21,021,021 samples, 21.00%)</title><rect x="45.4" y="357" width="247.8" height="15.0" fill="rgba(241,80,47,0.77)" rx="2" ry="2" />
<text  x="48.40" y="367.5" >PEM_X509_INFO_read_bio_ex</text>
</g>
<g >
<title>[libcrypto.so.3] (1,001,001 samples, 1.00%)</title><rect x="21.8" y="277" width="11.8" height="15.0" fill="rgba(241,80,47,0.68)" rx="2" ry="2" />
<text  x="24.80" y="287.5" ></text>
</g>
<g >
<title>[libcrypto.so.3] (1,001,001 samples, 1.00%)</title><rect x="281.4" y="197" width="11.8" height="15.0" fill="rgba(241,80,47,0.68)" rx="2" ry="2" />
<text  x="284.40" y="207.5" ></text>
</g>
<g >
<title>[libcrypto.so.3] (1,001,001 samples, 1.00%)</title><rect x="33.6" y="245" width="11.8" height="15.0" fill="rgba(241,80,47,0.68)" rx="2" ry="2" />
<text  x="36.60" y="255.5" ></text>
</g>
<g >
<title>[ld-linux-x86-64.so.2] (1,001,001 samples, 1.00%)</title><rect x="10.0" y="421" width="11.8" height="15.0" fill="rgba(241,80,47,0.82)" rx="2" ry="2" />
<text  x="13.00" y="431.5" ></text>
</g>
<g >
<title>[ld-linux-x86-64.so.2] (1,001,001 samples, 1.00%)</title><rect x="10.0" y="293" width="11.8" height="15.0" fill="rgba(241,80,47,0.82)" rx="2" ry="2" />
<text  x="13.00" y="303.5" ></text>
</g>
<g >
<title>[libcrypto.so.3] (1,001,001 samples, 1.00%)</title><rect x="69.0" y="149" width="11.8" height="15.0" fill="rgba(241,80,47,0.68)" rx="2" ry="2" />
<text  x="72.00" y="159.5" ></text>
</g>
<g >
<title>[libcrypto.so.3] (1,001,001 samples, 1.00%)</title><rect x="69.0" y="133" width="11.8" height="15.0" fill="rgba(241,80,47,0.68)" rx="2" ry="2" />
<text  x="72.00" y="143.5" ></text>
</g>
<g >
<title>[libcrypto.so.3] (1,001,001 samples, 1.00%)</title><rect x="33.6" y="181" width="11.8" height="15.0" fill="rgba(241,80,47,0.68)" rx="2" ry="2" />
<text  x="36.60" y="191.5" ></text>
</g>
<g >
<title>OPENSSL_init_crypto (1,001,001 samples, 1.00%)</title><rect x="21.8" y="389" width="11.8" height="15.0" fill="rgba(241,80,47,0.63)" rx="2" ry="2" />
<text  x="24.80" y="399.5" ></text>
</g>
<g >
<title>[unknown] (1,001,001 samples, 1.00%)</title><rect x="10.0" y="197" width="11.8" height="15.0" fill="rgba(55,125,205,0.29)" rx="2" ry="2" />
<text  x="13.00" y="207.5" ></text>
</g>
<g >
<title>[libcrypto.so.3] (1,001,001 samples, 1.00%)</title><rect x="33.6" y="133" width="11.8" height="15.0" fill="rgba(241,80,47,0.68)" rx="2" ry="2" />
<text  x="36.60" y="143.5" ></text>
</g>
<g >
<title>[libcrypto.so.3] (1,001,001 samples, 1.00%)</title><rect x="175.2" y="149" width="11.8" height="15.0" fill="rgba(241,80,47,0.68)" rx="2" ry="2" />
<text  x="178.20" y="159.5" ></text>
</g>
<g >
<title>[ld-linux-x86-64.so.2] (1,001,001 samples, 1.00%)</title><rect x="10.0" y="373" width="11.8" height="15.0" fill="rgba(241,80,47,0.82)" rx="2" ry="2" />
<text  x="13.00" y="383.5" ></text>
</g>
<g >
<title>[libcrypto.so.3] (1,001,001 samples, 1.00%)</title><rect x="69.0" y="181" width="11.8" height="15.0" fill="rgba(241,80,47,0.68)" rx="2" ry="2" />
<text  x="72.00" y="191.5" ></text>
</g>
<g >
<title>OSSL_DECODER_do_all_provided (5,005,005 samples, 5.00%)</title><rect x="187.0" y="197" width="59.0" height="15.0" fill="rgba(241,80,47,0.85)" rx="2" ry="2" />
<text  x="190.00" y="207.5" >OSSL_D..</text>
</g>
<g >
<title>[unknown] (25,025,025 samples, 25.00%)</title><rect x="895.0" y="293" width="295.0" height="15.0" fill="rgba(55,125,205,0.29)" rx="2" ry="2" />
<text  x="898.00" y="303.5" >[unknown]</text>
</g>
<g >
<title>openssl_init (24,024,024 samples, 24.00%)</title><rect x="21.8" y="421" width="283.2" height="15.0" fill="rgba(241,80,47,0.86)" rx="2" ry="2" />
<text  x="24.80" y="431.5" >openssl_init</text>
</g>
<g >
<title>[libcrypto.so.3] (3,003,003 samples, 3.00%)</title><rect x="198.8" y="85" width="35.4" height="15.0" fill="rgba(241,80,47,0.68)" rx="2" ry="2" />
<text  x="201.80" y="95.5" >[l..</text>
</g>
<g >
<title>[libcrypto.so.3] (22,022,022 samples, 22.00%)</title><rect x="45.4" y="389" width="259.6" height="15.0" fill="rgba(241,80,47,0.68)" rx="2" ry="2" />
<text  x="48.40" y="399.5" >[libcrypto.so.3]</text>
</g>
<g >
<title>[ld-linux-x86-64.so.2] (1,001,001 samples, 1.00%)</title><rect x="10.0" y="389" width="11.8" height="15.0" fill="rgba(241,80,47,0.82)" rx="2" ry="2" />
<text  x="13.00" y="399.5" ></text>
</g>
<g >
<title>[libcrypto.so.3] (1,001,001 samples, 1.00%)</title><rect x="33.6" y="101" width="11.8" height="15.0" fill="rgba(241,80,47,0.68)" rx="2" ry="2" />
<text  x="36.60" y="111.5" ></text>
</g>
<g >
<title>[unknown] (75,075,075 samples, 75.00%)</title><rect x="305.0" y="389" width="885.0" height="15.0" fill="rgba(55,125,205,0.29)" rx="2" ry="2" />
<text  x="308.00" y="399.5" >[unknown]</text>
</g>
<g >
<title>CRYPTO_THREAD_unlock (1,001,001 samples, 1.00%)</title><rect x="234.2" y="69" width="11.8" height="15.0" fill="rgba(55,125,205,0.52)" rx="2" ry="2" />
<text  x="237.20" y="79.5" ></text>
</g>
<g >
<title>[libcrypto.so.3] (1,001,001 samples, 1.00%)</title><rect x="69.0" y="165" width="11.8" height="15.0" fill="rgba(241,80,47,0.68)" rx="2" ry="2" />
<text  x="72.00" y="175.5" ></text>
</g>
<g >
<title>CRYPTO_THREAD_run_once (1,001,001 samples, 1.00%)</title><rect x="21.8" y="373" width="11.8" height="15.0" fill="rgba(241,80,47,0.93)" rx="2" ry="2" />
<text  x="24.80" y="383.5" ></text>
</g>
<g >
<title>[libc.so.6] (1,001,001 samples, 1.00%)</title><rect x="69.0" y="53" width="11.8" height="15.0" fill="rgba(55,125,205,0.49)" rx="2" ry="2" />
<text  x="72.00" y="63.5" ></text>
</g>
<g >
<title>OPENSSL_LH_retrieve (5,005,005 samples, 5.00%)</title><rect x="92.6" y="149" width="59.0" height="15.0" fill="rgba(55,125,205,0.44)" rx="2" ry="2" />
<text  x="95.60" y="159.5" >OPENSS..</text>
</g>
<g >
<title>[libcrypto.so.3] (21,021,021 samples, 21.00%)</title><rect x="45.4" y="309" width="247.8" height="15.0" fill="rgba(241,80,47,0.68)" rx="2" ry="2" />
<text  x="48.40" y="319.5" >[libcrypto.so.3]</text>
</g>
<g >
<title>[libcrypto.so.3] (5,005,005 samples, 5.00%)</title><rect x="187.0" y="133" width="59.0" height="15.0" fill="rgba(241,80,47,0.68)" rx="2" ry="2" />
<text  x="190.00" y="143.5" >[libcr..</text>
</g>
<g >
<title>[libcrypto.so.3] (1,001,001 samples, 1.00%)</title><rect x="175.2" y="165" width="11.8" height="15.0" fill="rgba(241,80,47,0.68)" rx="2" ry="2" />
<text  x="178.20" y="175.5" ></text>
</g>
<g >
<title>[libcrypto.so.3] (7,007,007 samples, 7.00%)</title><rect x="80.8" y="165" width="82.6" height="15.0" fill="rgba(241,80,47,0.68)" rx="2" ry="2" />
<text  x="83.80" y="175.5" >[libcrypt..</text>
</g>
<g >
<title>[libcrypto.so.3] (1,001,001 samples, 1.00%)</title><rect x="246.0" y="181" width="11.8" height="15.0" fill="rgba(241,80,47,0.68)" rx="2" ry="2" />
<text  x="249.00" y="191.5" ></text>
</g>
<g >
<title>[ld-linux-x86-64.so.2] (1,001,001 samples, 1.00%)</title><rect x="10.0" y="357" width="11.8" height="15.0" fill="rgba(241,80,47,0.82)" rx="2" ry="2" />
<text  x="13.00" y="367.5" ></text>
</g>
<g >
<title>[ld-linux-x86-64.so.2] (1,001,001 samples, 1.00%)</title><rect x="10.0" y="325" width="11.8" height="15.0" fill="rgba(241,80,47,0.82)" rx="2" ry="2" />
<text  x="13.00" y="335.5" ></text>
</g>
<g >
<title>[libcrypto.so.3] (1,001,001 samples, 1.00%)</title><rect x="234.2" y="85" width="11.8" height="15.0" fill="rgba(241,80,47,0.68)" rx="2" ry="2" />
<text  x="237.20" y="95.5" ></text>
</g>
<g >
<title>[libcrypto.so.3] (1,001,001 samples, 1.00%)</title><rect x="33.6" y="293" width="11.8" height="15.0" fill="rgba(241,80,47,0.68)" rx="2" ry="2" />
<text  x="36.60" y="303.5" ></text>
</g>
<g >
<title>[libcrypto.so.3] (1,001,001 samples, 1.00%)</title><rect x="163.4" y="181" width="11.8" height="15.0" fill="rgba(241,80,47,0.68)" rx="2" ry="2" />
<text  x="166.40" y="191.5" ></text>
</g>
<g >
<title>[libcrypto.so.3] (1,001,001 samples, 1.00%)</title><rect x="33.6" y="325" width="11.8" height="15.0" fill="rgba(241,80,47,0.68)" rx="2" ry="2" />
<text  x="36.60" y="335.5" ></text>
</g>
<g >
<title>OBJ_NAME_get (1,001,001 samples, 1.00%)</title><rect x="33.6" y="165" width="11.8" height="15.0" fill="rgba(241,80,47,0.72)" rx="2" ry="2" />
<text  x="36.60" y="175.5" ></text>
</g>
<g >
<title>[unknown] (1,001,001 samples, 1.00%)</title><rect x="10.0" y="261" width="11.8" height="15.0" fill="rgba(55,125,205,0.29)" rx="2" ry="2" />
<text  x="13.00" y="271.5" ></text>
</g>
<g >
<title>[libcrypto.so.3] (21,021,021 samples, 21.00%)</title><rect x="45.4" y="277" width="247.8" height="15.0" fill="rgba(241,80,47,0.68)" rx="2" ry="2" />
<text  x="48.40" y="287.5" >[libcrypto.so.3]</text>
</g>
<g >
<title>OSSL_DECODER_CTX_new_for_pkey (17,017,017 samples, 17.00%)</title><rect x="57.2" y="229" width="200.6" height="15.0" fill="rgba(241,80,47,0.79)" rx="2" ry="2" />
<text  x="60.20" y="239.5" >OSSL_DECODER_CTX_new_for_p..</text>
</g>
</g>
</svg>
